<svg xmlns="http://www.w3.org/2000/svg" viewBox="0 0 595.22 842" role="img" aria-labelledby="title desc">
  <title id="title">acemkurdi--aranagme--curcuna--1-- PDF vector measure candidates</title>
  <desc id="desc">9 measure candidates extracted from 2 staff rows. These are unverified candidates.</desc>
  <style>
    .page { fill: #fffdf8; stroke: #1f2937; stroke-width: 1.2; }
    .staff-band { fill: rgba(21, 94, 117, 0.06); stroke: rgba(21, 94, 117, 0.45); stroke-width: 0.8; }
    .staff-line { stroke: #334155; stroke-width: 0.55; }
    .measure-candidate { fill: rgba(217, 119, 6, 0.15); stroke: #b45309; stroke-width: 0.9; }
    .row-label { fill: #0f766e; font: 8px ui-monospace, SFMono-Regular, Consolas, monospace; }
    .candidate-label { fill: #92400e; font: 7px ui-monospace, SFMono-Regular, Consolas, monospace; text-anchor: middle; }
  </style>
  <rect x="0" y="0" width="595.22" height="842" class="page" />

      <rect x="14.22" y="111.18" width="567.06" height="21" class="staff-band" />
      <text x="18.22" y="106.18" class="row-label">row 1</text>
      <rect x="14.22" y="186.9" width="566.58" height="21" class="staff-band" />
      <text x="18.22" y="181.9" class="row-label">row 2</text>

        <line x1="14.22" y1="111.18" x2="581.28" y2="111.18" class="staff-line" />
        <line x1="14.22" y1="116.4" x2="581.28" y2="116.4" class="staff-line" />
        <line x1="14.22" y1="121.68" x2="581.28" y2="121.68" class="staff-line" />
        <line x1="14.22" y1="126.9" x2="581.28" y2="126.9" class="staff-line" />
        <line x1="14.22" y1="132.18" x2="581.28" y2="132.18" class="staff-line" />
        <line x1="14.22" y1="186.9" x2="580.8" y2="186.9" class="staff-line" />
        <line x1="14.22" y1="192.18" x2="580.8" y2="192.18" class="staff-line" />
        <line x1="14.22" y1="197.4" x2="580.8" y2="197.4" class="staff-line" />
        <line x1="14.22" y1="202.68" x2="580.8" y2="202.68" class="staff-line" />
        <line x1="14.22" y1="207.9" x2="580.8" y2="207.9" class="staff-line" />

        <rect x="14.22" y="111.18" width="58.68" height="21" class="measure-candidate" />
        <text x="40.56" y="124.68" class="candidate-label">1</text>
        <rect x="76.68" y="111.18" width="111" height="21" class="measure-candidate" />
        <text x="129.18" y="124.68" class="candidate-label">2</text>
        <rect x="187.68" y="111.18" width="131.22" height="21" class="measure-candidate" />
        <text x="250.29000000000002" y="124.68" class="candidate-label">3</text>
        <rect x="318.9" y="111.18" width="114.78" height="21" class="measure-candidate" />
        <text x="373.28999999999996" y="124.68" class="candidate-label">4</text>
        <rect x="433.68" y="111.18" width="147.6" height="21" class="measure-candidate" />
        <text x="504.48" y="124.68" class="candidate-label">5</text>
        <rect x="14.22" y="186.9" width="132.72" height="21" class="measure-candidate" />
        <text x="77.58" y="200.4" class="candidate-label">1</text>
        <rect x="146.94" y="186.9" width="156.18" height="21" class="measure-candidate" />
        <text x="222.03" y="200.4" class="candidate-label">2</text>
        <rect x="303.12" y="186.9" width="138.78" height="21" class="measure-candidate" />
        <text x="369.51" y="200.4" class="candidate-label">3</text>
        <rect x="441.9" y="186.9" width="138.9" height="21" class="measure-candidate" />
        <text x="508.34999999999997" y="200.4" class="candidate-label">4</text>
</svg>
