<svg xmlns="http://www.w3.org/2000/svg" viewBox="0 0 595.22 842" role="img" aria-labelledby="title desc">
  <title id="title">hicaz--sarki--kapali_curcuna--anlatilmaz_bin--erdogan_yildizel PDF vector measure candidates</title>
  <desc id="desc">37 measure candidates extracted from 9 staff rows. These are unverified candidates.</desc>
  <style>
    .page { fill: #fffdf8; stroke: #1f2937; stroke-width: 1.2; }
    .staff-band { fill: rgba(21, 94, 117, 0.06); stroke: rgba(21, 94, 117, 0.45); stroke-width: 0.8; }
    .staff-line { stroke: #334155; stroke-width: 0.55; }
    .measure-candidate { fill: rgba(217, 119, 6, 0.15); stroke: #b45309; stroke-width: 0.9; }
    .row-label { fill: #0f766e; font: 8px ui-monospace, SFMono-Regular, Consolas, monospace; }
    .candidate-label { fill: #92400e; font: 7px ui-monospace, SFMono-Regular, Consolas, monospace; text-anchor: middle; }
  </style>
  <rect x="0" y="0" width="595.22" height="842" class="page" />

      <rect x="14.22" y="111.9" width="566.82" height="21" class="staff-band" />
      <text x="18.22" y="106.9" class="row-label">row 1</text>
      <rect x="14.22" y="184.68" width="566.52" height="21" class="staff-band" />
      <text x="18.22" y="179.68" class="row-label">row 2</text>
      <rect x="14.22" y="257.4" width="565.38" height="21" class="staff-band" />
      <text x="18.22" y="252.39999999999998" class="row-label">row 3</text>
      <rect x="14.22" y="330.18" width="566.52" height="21" class="staff-band" />
      <text x="18.22" y="325.18" class="row-label">row 4</text>
      <rect x="14.22" y="402.9" width="566.1" height="21" class="staff-band" />
      <text x="18.22" y="397.9" class="row-label">row 5</text>
      <rect x="14.22" y="475.68" width="565.98" height="21" class="staff-band" />
      <text x="18.22" y="470.68" class="row-label">row 6</text>
      <rect x="14.22" y="548.4" width="566.04" height="21" class="staff-band" />
      <text x="18.22" y="543.4" class="row-label">row 7</text>
      <rect x="14.22" y="621.18" width="566.1" height="21" class="staff-band" />
      <text x="18.22" y="616.18" class="row-label">row 8</text>
      <rect x="14.22" y="693.9" width="566.58" height="21" class="staff-band" />
      <text x="18.22" y="688.9" class="row-label">row 9</text>

        <line x1="14.22" y1="111.9" x2="581.04" y2="111.9" class="staff-line" />
        <line x1="14.22" y1="117.18" x2="581.04" y2="117.18" class="staff-line" />
        <line x1="14.22" y1="122.4" x2="581.04" y2="122.4" class="staff-line" />
        <line x1="14.22" y1="127.68" x2="581.04" y2="127.68" class="staff-line" />
        <line x1="14.22" y1="132.9" x2="581.04" y2="132.9" class="staff-line" />
        <line x1="14.22" y1="184.68" x2="580.74" y2="184.68" class="staff-line" />
        <line x1="14.22" y1="189.9" x2="580.74" y2="189.9" class="staff-line" />
        <line x1="14.22" y1="195.18" x2="580.74" y2="195.18" class="staff-line" />
        <line x1="14.22" y1="200.4" x2="580.74" y2="200.4" class="staff-line" />
        <line x1="14.22" y1="205.68" x2="580.74" y2="205.68" class="staff-line" />
        <line x1="14.22" y1="257.4" x2="579.6" y2="257.4" class="staff-line" />
        <line x1="14.22" y1="262.68" x2="579.6" y2="262.68" class="staff-line" />
        <line x1="14.22" y1="267.9" x2="579.6" y2="267.9" class="staff-line" />
        <line x1="14.22" y1="273.18" x2="579.6" y2="273.18" class="staff-line" />
        <line x1="14.22" y1="278.4" x2="579.6" y2="278.4" class="staff-line" />
        <line x1="14.22" y1="330.18" x2="580.74" y2="330.18" class="staff-line" />
        <line x1="14.22" y1="335.4" x2="580.74" y2="335.4" class="staff-line" />
        <line x1="14.22" y1="340.68" x2="580.74" y2="340.68" class="staff-line" />
        <line x1="14.22" y1="345.9" x2="580.74" y2="345.9" class="staff-line" />
        <line x1="14.22" y1="351.18" x2="580.74" y2="351.18" class="staff-line" />
        <line x1="14.22" y1="402.9" x2="580.32" y2="402.9" class="staff-line" />
        <line x1="14.22" y1="408.18" x2="580.32" y2="408.18" class="staff-line" />
        <line x1="14.22" y1="413.4" x2="580.32" y2="413.4" class="staff-line" />
        <line x1="14.22" y1="418.68" x2="580.32" y2="418.68" class="staff-line" />
        <line x1="14.22" y1="423.9" x2="580.32" y2="423.9" class="staff-line" />
        <line x1="14.22" y1="475.68" x2="580.2" y2="475.68" class="staff-line" />
        <line x1="14.22" y1="480.9" x2="580.2" y2="480.9" class="staff-line" />
        <line x1="14.22" y1="486.18" x2="580.2" y2="486.18" class="staff-line" />
        <line x1="14.22" y1="491.4" x2="580.2" y2="491.4" class="staff-line" />
        <line x1="14.22" y1="496.68" x2="580.2" y2="496.68" class="staff-line" />
        <line x1="14.22" y1="548.4" x2="580.26" y2="548.4" class="staff-line" />
        <line x1="14.22" y1="553.68" x2="580.26" y2="553.68" class="staff-line" />
        <line x1="14.22" y1="558.9" x2="580.26" y2="558.9" class="staff-line" />
        <line x1="14.22" y1="564.18" x2="580.26" y2="564.18" class="staff-line" />
        <line x1="14.22" y1="569.4" x2="580.26" y2="569.4" class="staff-line" />
        <line x1="14.22" y1="621.18" x2="580.32" y2="621.18" class="staff-line" />
        <line x1="14.22" y1="626.4" x2="580.32" y2="626.4" class="staff-line" />
        <line x1="14.22" y1="631.68" x2="580.32" y2="631.68" class="staff-line" />
        <line x1="14.22" y1="636.9" x2="580.32" y2="636.9" class="staff-line" />
        <line x1="14.22" y1="642.18" x2="580.32" y2="642.18" class="staff-line" />
        <line x1="14.22" y1="693.9" x2="580.8" y2="693.9" class="staff-line" />
        <line x1="14.22" y1="699.18" x2="580.8" y2="699.18" class="staff-line" />
        <line x1="14.22" y1="704.4" x2="580.8" y2="704.4" class="staff-line" />
        <line x1="14.22" y1="709.68" x2="580.8" y2="709.68" class="staff-line" />
        <line x1="14.22" y1="714.9" x2="580.8" y2="714.9" class="staff-line" />

        <rect x="14.22" y="111.9" width="67.32" height="21" class="measure-candidate" />
        <text x="44.879999999999995" y="125.4" class="candidate-label">1</text>
        <rect x="85.32" y="111.9" width="63" height="21" class="measure-candidate" />
        <text x="113.82" y="125.4" class="candidate-label">2</text>
        <rect x="148.32" y="111.9" width="49.8" height="21" class="measure-candidate" />
        <text x="170.22" y="125.4" class="candidate-label">3</text>
        <rect x="198.12" y="111.9" width="133.2" height="21" class="measure-candidate" />
        <text x="261.72" y="125.4" class="candidate-label">4</text>
        <rect x="331.32" y="111.9" width="166.5" height="21" class="measure-candidate" />
        <text x="411.57" y="125.4" class="candidate-label">5</text>
        <rect x="497.82" y="111.9" width="83.22" height="21" class="measure-candidate" />
        <text x="536.43" y="125.4" class="candidate-label">6</text>
        <rect x="14.22" y="184.68" width="183.3" height="21" class="measure-candidate" />
        <text x="102.87" y="198.18" class="candidate-label">1</text>
        <rect x="197.52" y="184.68" width="109.5" height="21" class="measure-candidate" />
        <text x="249.27" y="198.18" class="candidate-label">2</text>
        <rect x="307.02" y="184.68" width="182.46" height="21" class="measure-candidate" />
        <text x="395.25" y="198.18" class="candidate-label">3</text>
        <rect x="489.48" y="184.68" width="91.26" height="21" class="measure-candidate" />
        <text x="532.11" y="198.18" class="candidate-label">4</text>
        <rect x="14.22" y="257.4" width="213.78" height="21" class="measure-candidate" />
        <text x="118.11" y="270.9" class="candidate-label">1</text>
        <rect x="228" y="257.4" width="158.88" height="21" class="measure-candidate" />
        <text x="304.44" y="270.9" class="candidate-label">2</text>
        <rect x="390.6" y="257.4" width="189" height="21" class="measure-candidate" />
        <text x="482.1" y="270.9" class="candidate-label">3</text>
        <rect x="14.22" y="330.18" width="37.26" height="21" class="measure-candidate" />
        <text x="29.85" y="343.68" class="candidate-label">1</text>
        <rect x="55.26" y="330.18" width="124.02" height="21" class="measure-candidate" />
        <text x="114.27" y="343.68" class="candidate-label">2</text>
        <rect x="179.28" y="330.18" width="91.2" height="21" class="measure-candidate" />
        <text x="221.88" y="343.68" class="candidate-label">3</text>
        <rect x="270.48" y="330.18" width="164.28" height="21" class="measure-candidate" />
        <text x="349.62" y="343.68" class="candidate-label">4</text>
        <rect x="434.76" y="330.18" width="145.98" height="21" class="measure-candidate" />
        <text x="504.75" y="343.68" class="candidate-label">5</text>
        <rect x="14.22" y="402.9" width="161.7" height="21" class="measure-candidate" />
        <text x="92.07" y="416.4" class="candidate-label">1</text>
        <rect x="175.92" y="402.9" width="124.44" height="21" class="measure-candidate" />
        <text x="235.14" y="416.4" class="candidate-label">2</text>
        <rect x="300.36" y="402.9" width="186.6" height="21" class="measure-candidate" />
        <text x="390.66" y="416.4" class="candidate-label">3</text>
        <rect x="486.96" y="402.9" width="93.36" height="21" class="measure-candidate" />
        <text x="530.64" y="416.4" class="candidate-label">4</text>
        <rect x="14.22" y="475.68" width="208.26" height="21" class="measure-candidate" />
        <text x="115.35" y="489.18" class="candidate-label">1</text>
        <rect x="222.48" y="475.68" width="188.1" height="21" class="measure-candidate" />
        <text x="313.53" y="489.18" class="candidate-label">2</text>
        <rect x="414.36" y="475.68" width="116.16" height="21" class="measure-candidate" />
        <text x="469.44" y="489.18" class="candidate-label">3</text>
        <rect x="530.52" y="475.68" width="49.68" height="21" class="measure-candidate" />
        <text x="552.36" y="489.18" class="candidate-label">4</text>
        <rect x="14.22" y="548.4" width="143.04" height="21" class="measure-candidate" />
        <text x="82.74" y="561.9" class="candidate-label">1</text>
        <rect x="157.26" y="548.4" width="105.72" height="21" class="measure-candidate" />
        <text x="207.12" y="561.9" class="candidate-label">2</text>
        <rect x="262.98" y="548.4" width="148.08" height="21" class="measure-candidate" />
        <text x="334.02000000000004" y="561.9" class="candidate-label">3</text>
        <rect x="411.06" y="548.4" width="169.2" height="21" class="measure-candidate" />
        <text x="492.65999999999997" y="561.9" class="candidate-label">4</text>
        <rect x="14.22" y="621.18" width="185.34" height="21" class="measure-candidate" />
        <text x="103.89" y="634.68" class="candidate-label">1</text>
        <rect x="199.56" y="621.18" width="105.96" height="21" class="measure-candidate" />
        <text x="249.54" y="634.68" class="candidate-label">2</text>
        <rect x="305.52" y="621.18" width="63.3" height="21" class="measure-candidate" />
        <text x="334.16999999999996" y="634.68" class="candidate-label">3</text>
        <rect x="368.82" y="621.18" width="211.5" height="21" class="measure-candidate" />
        <text x="471.57" y="634.68" class="candidate-label">4</text>
        <rect x="14.22" y="693.9" width="118.68" height="21" class="measure-candidate" />
        <text x="70.56" y="707.4" class="candidate-label">1</text>
        <rect x="132.9" y="693.9" width="223.86" height="21" class="measure-candidate" />
        <text x="241.83" y="707.4" class="candidate-label">2</text>
        <rect x="356.76" y="693.9" width="224.04" height="21" class="measure-candidate" />
        <text x="465.78" y="707.4" class="candidate-label">3</text>
</svg>
