<svg xmlns="http://www.w3.org/2000/svg" viewBox="0 0 595.22 842" role="img" aria-labelledby="title desc">
  <title id="title">hisarbuselik--aranagme--yuruksemai_ii--1-- PDF vector measure candidates</title>
  <desc id="desc">28 measure candidates extracted from 6 staff rows. These are unverified candidates.</desc>
  <style>
    .page { fill: #fffdf8; stroke: #1f2937; stroke-width: 1.2; }
    .staff-band { fill: rgba(21, 94, 117, 0.06); stroke: rgba(21, 94, 117, 0.45); stroke-width: 0.8; }
    .staff-line { stroke: #334155; stroke-width: 0.55; }
    .measure-candidate { fill: rgba(217, 119, 6, 0.15); stroke: #b45309; stroke-width: 0.9; }
    .row-label { fill: #0f766e; font: 8px ui-monospace, SFMono-Regular, Consolas, monospace; }
    .candidate-label { fill: #92400e; font: 7px ui-monospace, SFMono-Regular, Consolas, monospace; text-anchor: middle; }
  </style>
  <rect x="0" y="0" width="595.22" height="842" class="page" />

      <rect x="14.22" y="111.18" width="566.46" height="21" class="staff-band" />
      <text x="18.22" y="106.18" class="row-label">row 1</text>
      <rect x="14.22" y="186.9" width="566.58" height="21" class="staff-band" />
      <text x="18.22" y="181.9" class="row-label">row 2</text>
      <rect x="14.22" y="262.68" width="565.14" height="21" class="staff-band" />
      <text x="18.22" y="257.68" class="row-label">row 3</text>
      <rect x="14.22" y="338.4" width="566.1" height="21" class="staff-band" />
      <text x="18.22" y="333.4" class="row-label">row 4</text>
      <rect x="14.22" y="414.18" width="566.7" height="21" class="staff-band" />
      <text x="18.22" y="409.18" class="row-label">row 5</text>
      <rect x="14.22" y="489.9" width="566.58" height="21" class="staff-band" />
      <text x="18.22" y="484.9" class="row-label">row 6</text>

        <line x1="14.22" y1="111.18" x2="580.68" y2="111.18" class="staff-line" />
        <line x1="14.22" y1="116.4" x2="580.68" y2="116.4" class="staff-line" />
        <line x1="14.22" y1="121.68" x2="580.68" y2="121.68" class="staff-line" />
        <line x1="14.22" y1="126.9" x2="580.68" y2="126.9" class="staff-line" />
        <line x1="14.22" y1="132.18" x2="580.68" y2="132.18" class="staff-line" />
        <line x1="14.22" y1="186.9" x2="580.8" y2="186.9" class="staff-line" />
        <line x1="14.22" y1="192.18" x2="580.8" y2="192.18" class="staff-line" />
        <line x1="14.22" y1="197.4" x2="580.8" y2="197.4" class="staff-line" />
        <line x1="14.22" y1="202.68" x2="580.8" y2="202.68" class="staff-line" />
        <line x1="14.22" y1="207.9" x2="580.8" y2="207.9" class="staff-line" />
        <line x1="14.22" y1="262.68" x2="579.36" y2="262.68" class="staff-line" />
        <line x1="14.22" y1="267.9" x2="579.36" y2="267.9" class="staff-line" />
        <line x1="14.22" y1="273.18" x2="579.36" y2="273.18" class="staff-line" />
        <line x1="14.22" y1="278.4" x2="579.36" y2="278.4" class="staff-line" />
        <line x1="14.22" y1="283.68" x2="579.36" y2="283.68" class="staff-line" />
        <line x1="14.22" y1="338.4" x2="580.32" y2="338.4" class="staff-line" />
        <line x1="14.22" y1="343.68" x2="580.32" y2="343.68" class="staff-line" />
        <line x1="14.22" y1="348.9" x2="580.32" y2="348.9" class="staff-line" />
        <line x1="14.22" y1="354.18" x2="580.32" y2="354.18" class="staff-line" />
        <line x1="14.22" y1="359.4" x2="580.32" y2="359.4" class="staff-line" />
        <line x1="14.22" y1="414.18" x2="580.92" y2="414.18" class="staff-line" />
        <line x1="14.22" y1="419.4" x2="580.92" y2="419.4" class="staff-line" />
        <line x1="14.22" y1="424.68" x2="580.92" y2="424.68" class="staff-line" />
        <line x1="14.22" y1="429.9" x2="580.92" y2="429.9" class="staff-line" />
        <line x1="14.22" y1="435.18" x2="580.92" y2="435.18" class="staff-line" />
        <line x1="14.22" y1="489.9" x2="580.8" y2="489.9" class="staff-line" />
        <line x1="14.22" y1="495.18" x2="580.8" y2="495.18" class="staff-line" />
        <line x1="14.22" y1="500.4" x2="580.8" y2="500.4" class="staff-line" />
        <line x1="14.22" y1="505.68" x2="580.8" y2="505.68" class="staff-line" />
        <line x1="14.22" y1="510.9" x2="580.8" y2="510.9" class="staff-line" />

        <rect x="14.22" y="111.18" width="176.1" height="21" class="measure-candidate" />
        <text x="99.27" y="124.68" class="candidate-label">1</text>
        <rect x="190.32" y="111.18" width="146.4" height="21" class="measure-candidate" />
        <text x="260.52" y="124.68" class="candidate-label">2</text>
        <rect x="336.72" y="111.18" width="97.74" height="21" class="measure-candidate" />
        <text x="382.59000000000003" y="124.68" class="candidate-label">3</text>
        <rect x="434.46" y="111.18" width="73.02" height="21" class="measure-candidate" />
        <text x="467.96999999999997" y="124.68" class="candidate-label">4</text>
        <rect x="507.48" y="111.18" width="73.2" height="21" class="measure-candidate" />
        <text x="541.08" y="124.68" class="candidate-label">5</text>
        <rect x="14.22" y="186.9" width="30.12" height="21" class="measure-candidate" />
        <text x="26.28" y="200.4" class="candidate-label">1</text>
        <rect x="48.12" y="186.9" width="26.16" height="21" class="measure-candidate" />
        <text x="58.199999999999996" y="200.4" class="candidate-label">2</text>
        <rect x="74.28" y="186.9" width="178.68" height="21" class="measure-candidate" />
        <text x="160.62" y="200.4" class="candidate-label">3</text>
        <rect x="252.96" y="186.9" width="208.62" height="21" class="measure-candidate" />
        <text x="354.27" y="200.4" class="candidate-label">4</text>
        <rect x="461.58" y="186.9" width="119.22" height="21" class="measure-candidate" />
        <text x="518.1899999999999" y="200.4" class="candidate-label">5</text>
        <rect x="14.22" y="262.68" width="164.22" height="21" class="measure-candidate" />
        <text x="93.33" y="276.18" class="candidate-label">1</text>
        <rect x="178.44" y="262.68" width="268.2" height="21" class="measure-candidate" />
        <text x="309.53999999999996" y="276.18" class="candidate-label">2</text>
        <rect x="450.42" y="262.68" width="128.94" height="21" class="measure-candidate" />
        <text x="511.89" y="276.18" class="candidate-label">3</text>
        <rect x="14.22" y="338.4" width="30.12" height="21" class="measure-candidate" />
        <text x="26.28" y="351.9" class="candidate-label">1</text>
        <rect x="48.12" y="338.4" width="112.8" height="21" class="measure-candidate" />
        <text x="101.52" y="351.9" class="candidate-label">2</text>
        <rect x="160.92" y="338.4" width="139.8" height="21" class="measure-candidate" />
        <text x="227.82" y="351.9" class="candidate-label">3</text>
        <rect x="300.72" y="338.4" width="139.8" height="21" class="measure-candidate" />
        <text x="367.62" y="351.9" class="candidate-label">4</text>
        <rect x="440.52" y="338.4" width="139.8" height="21" class="measure-candidate" />
        <text x="507.41999999999996" y="351.9" class="candidate-label">5</text>
        <rect x="14.22" y="414.18" width="157.86" height="21" class="measure-candidate" />
        <text x="90.15" y="427.68" class="candidate-label">1</text>
        <rect x="172.08" y="414.18" width="76.68" height="21" class="measure-candidate" />
        <text x="207.42000000000002" y="427.68" class="candidate-label">2</text>
        <rect x="248.76" y="414.18" width="127.74" height="21" class="measure-candidate" />
        <text x="309.63" y="427.68" class="candidate-label">3</text>
        <rect x="376.5" y="414.18" width="76.68" height="21" class="measure-candidate" />
        <text x="411.84000000000003" y="427.68" class="candidate-label">4</text>
        <rect x="453.18" y="414.18" width="127.74" height="21" class="measure-candidate" />
        <text x="514.05" y="427.68" class="candidate-label">5</text>
        <rect x="14.22" y="489.9" width="190.92" height="21" class="measure-candidate" />
        <text x="106.67999999999999" y="503.4" class="candidate-label">1</text>
        <rect x="205.14" y="489.9" width="80.4" height="21" class="measure-candidate" />
        <text x="242.33999999999997" y="503.4" class="candidate-label">2</text>
        <rect x="285.54" y="489.9" width="187.62" height="21" class="measure-candidate" />
        <text x="376.35" y="503.4" class="candidate-label">3</text>
        <rect x="476.88" y="489.9" width="75.3" height="21" class="measure-candidate" />
        <text x="511.53" y="503.4" class="candidate-label">4</text>
        <rect x="552.18" y="489.9" width="28.62" height="21" class="measure-candidate" />
        <text x="563.4899999999999" y="503.4" class="candidate-label">5</text>
</svg>
