<svg xmlns="http://www.w3.org/2000/svg" viewBox="0 0 595.22 842" role="img" aria-labelledby="title desc">
  <title id="title">hisar--nakis--yuruksemai--hava_guzel--dede_efendi PDF vector measure candidates</title>
  <desc id="desc">44 measure candidates extracted from 11 staff rows. These are unverified candidates.</desc>
  <style>
    .page { fill: #fffdf8; stroke: #1f2937; stroke-width: 1.2; }
    .staff-band { fill: rgba(21, 94, 117, 0.06); stroke: rgba(21, 94, 117, 0.45); stroke-width: 0.8; }
    .staff-line { stroke: #334155; stroke-width: 0.55; }
    .measure-candidate { fill: rgba(217, 119, 6, 0.15); stroke: #b45309; stroke-width: 0.9; }
    .row-label { fill: #0f766e; font: 8px ui-monospace, SFMono-Regular, Consolas, monospace; }
    .candidate-label { fill: #92400e; font: 7px ui-monospace, SFMono-Regular, Consolas, monospace; text-anchor: middle; }
  </style>
  <rect x="0" y="0" width="595.22" height="842" class="page" />

      <rect x="14.22" y="73.68" width="566.16" height="21" class="staff-band" />
      <text x="18.22" y="68.68" class="row-label">row 1</text>
      <rect x="14.22" y="116.4" width="565.86" height="21" class="staff-band" />
      <text x="18.22" y="111.4" class="row-label">row 2</text>
      <rect x="14.22" y="156.18" width="566.58" height="21" class="staff-band" />
      <text x="18.22" y="151.18" class="row-label">row 3</text>
      <rect x="14.22" y="198.9" width="566.4" height="21" class="staff-band" />
      <text x="18.22" y="193.9" class="row-label">row 4</text>
      <rect x="14.22" y="281.4" width="566.16" height="21" class="staff-band" />
      <text x="18.22" y="276.4" class="row-label">row 5</text>
      <rect x="14.22" y="363.9" width="567.06" height="21" class="staff-band" />
      <text x="18.22" y="358.9" class="row-label">row 6</text>
      <rect x="14.22" y="446.4" width="566.46" height="21" class="staff-band" />
      <text x="18.22" y="441.4" class="row-label">row 7</text>
      <rect x="14.22" y="528.9" width="566.1" height="21" class="staff-band" />
      <text x="18.22" y="523.9" class="row-label">row 8</text>
      <rect x="14.22" y="611.4" width="566.4" height="21" class="staff-band" />
      <text x="18.22" y="606.4" class="row-label">row 9</text>
      <rect x="14.22" y="693.9" width="567.12" height="21" class="staff-band" />
      <text x="18.22" y="688.9" class="row-label">row 10</text>
      <rect x="14.22" y="776.4" width="566.4" height="21" class="staff-band" />
      <text x="18.22" y="771.4" class="row-label">row 11</text>

        <line x1="14.22" y1="73.68" x2="580.38" y2="73.68" class="staff-line" />
        <line x1="14.22" y1="78.9" x2="580.38" y2="78.9" class="staff-line" />
        <line x1="14.22" y1="84.18" x2="580.38" y2="84.18" class="staff-line" />
        <line x1="14.22" y1="89.4" x2="580.38" y2="89.4" class="staff-line" />
        <line x1="14.22" y1="94.68" x2="580.38" y2="94.68" class="staff-line" />
        <line x1="14.22" y1="116.4" x2="580.08" y2="116.4" class="staff-line" />
        <line x1="14.22" y1="121.68" x2="580.08" y2="121.68" class="staff-line" />
        <line x1="14.22" y1="126.9" x2="580.08" y2="126.9" class="staff-line" />
        <line x1="14.22" y1="132.18" x2="580.08" y2="132.18" class="staff-line" />
        <line x1="14.22" y1="137.4" x2="580.08" y2="137.4" class="staff-line" />
        <line x1="14.22" y1="156.18" x2="580.8" y2="156.18" class="staff-line" />
        <line x1="14.22" y1="161.4" x2="580.8" y2="161.4" class="staff-line" />
        <line x1="14.22" y1="166.68" x2="580.8" y2="166.68" class="staff-line" />
        <line x1="14.22" y1="171.9" x2="580.8" y2="171.9" class="staff-line" />
        <line x1="14.22" y1="177.18" x2="580.8" y2="177.18" class="staff-line" />
        <line x1="14.22" y1="198.9" x2="580.62" y2="198.9" class="staff-line" />
        <line x1="14.22" y1="204.18" x2="580.62" y2="204.18" class="staff-line" />
        <line x1="14.22" y1="209.4" x2="580.62" y2="209.4" class="staff-line" />
        <line x1="14.22" y1="214.68" x2="580.62" y2="214.68" class="staff-line" />
        <line x1="14.22" y1="219.9" x2="580.62" y2="219.9" class="staff-line" />
        <line x1="14.22" y1="281.4" x2="580.38" y2="281.4" class="staff-line" />
        <line x1="14.22" y1="286.68" x2="580.38" y2="286.68" class="staff-line" />
        <line x1="14.22" y1="291.9" x2="580.38" y2="291.9" class="staff-line" />
        <line x1="14.22" y1="297.18" x2="580.38" y2="297.18" class="staff-line" />
        <line x1="14.22" y1="302.4" x2="580.38" y2="302.4" class="staff-line" />
        <line x1="14.22" y1="363.9" x2="581.28" y2="363.9" class="staff-line" />
        <line x1="14.22" y1="369.18" x2="581.28" y2="369.18" class="staff-line" />
        <line x1="14.22" y1="374.4" x2="581.28" y2="374.4" class="staff-line" />
        <line x1="14.22" y1="379.68" x2="581.28" y2="379.68" class="staff-line" />
        <line x1="14.22" y1="384.9" x2="581.28" y2="384.9" class="staff-line" />
        <line x1="14.22" y1="446.4" x2="580.68" y2="446.4" class="staff-line" />
        <line x1="14.22" y1="451.68" x2="580.68" y2="451.68" class="staff-line" />
        <line x1="14.22" y1="456.9" x2="580.68" y2="456.9" class="staff-line" />
        <line x1="14.22" y1="462.18" x2="580.68" y2="462.18" class="staff-line" />
        <line x1="14.22" y1="467.4" x2="580.68" y2="467.4" class="staff-line" />
        <line x1="14.22" y1="528.9" x2="580.32" y2="528.9" class="staff-line" />
        <line x1="14.22" y1="534.18" x2="580.32" y2="534.18" class="staff-line" />
        <line x1="14.22" y1="539.4" x2="580.32" y2="539.4" class="staff-line" />
        <line x1="14.22" y1="544.68" x2="580.32" y2="544.68" class="staff-line" />
        <line x1="14.22" y1="549.9" x2="580.32" y2="549.9" class="staff-line" />
        <line x1="14.22" y1="611.4" x2="580.62" y2="611.4" class="staff-line" />
        <line x1="14.22" y1="616.68" x2="580.62" y2="616.68" class="staff-line" />
        <line x1="14.22" y1="621.9" x2="580.62" y2="621.9" class="staff-line" />
        <line x1="14.22" y1="627.18" x2="580.62" y2="627.18" class="staff-line" />
        <line x1="14.22" y1="632.4" x2="580.62" y2="632.4" class="staff-line" />
        <line x1="14.22" y1="693.9" x2="581.34" y2="693.9" class="staff-line" />
        <line x1="14.22" y1="699.18" x2="581.34" y2="699.18" class="staff-line" />
        <line x1="14.22" y1="704.4" x2="581.34" y2="704.4" class="staff-line" />
        <line x1="14.22" y1="709.68" x2="581.34" y2="709.68" class="staff-line" />
        <line x1="14.22" y1="714.9" x2="581.34" y2="714.9" class="staff-line" />
        <line x1="14.22" y1="776.4" x2="580.62" y2="776.4" class="staff-line" />
        <line x1="14.22" y1="781.68" x2="580.62" y2="781.68" class="staff-line" />
        <line x1="14.22" y1="786.9" x2="580.62" y2="786.9" class="staff-line" />
        <line x1="14.22" y1="792.18" x2="580.62" y2="792.18" class="staff-line" />
        <line x1="14.22" y1="797.4" x2="580.62" y2="797.4" class="staff-line" />

        <rect x="14.22" y="73.68" width="214.38" height="21" class="measure-candidate" />
        <text x="118.41" y="87.18" class="candidate-label">1</text>
        <rect x="228.6" y="73.68" width="184.26" height="21" class="measure-candidate" />
        <text x="317.73" y="87.18" class="candidate-label">2</text>
        <rect x="412.86" y="73.68" width="67.02" height="21" class="measure-candidate" />
        <text x="443.37" y="87.18" class="candidate-label">3</text>
        <rect x="479.88" y="73.68" width="100.5" height="21" class="measure-candidate" />
        <text x="527.13" y="87.18" class="candidate-label">4</text>
        <rect x="14.22" y="116.4" width="139.62" height="21" class="measure-candidate" />
        <text x="81.03" y="129.9" class="candidate-label">1</text>
        <rect x="153.84" y="116.4" width="136.44" height="21" class="measure-candidate" />
        <text x="219.06" y="129.9" class="candidate-label">2</text>
        <rect x="290.28" y="116.4" width="17.16" height="21" class="measure-candidate" />
        <text x="295.85999999999996" y="129.9" class="candidate-label">3</text>
        <rect x="307.44" y="116.4" width="170.34" height="21" class="measure-candidate" />
        <text x="389.61" y="129.9" class="candidate-label">4</text>
        <rect x="477.78" y="116.4" width="102.3" height="21" class="measure-candidate" />
        <text x="525.93" y="129.9" class="candidate-label">5</text>
        <rect x="14.22" y="156.18" width="259.92" height="21" class="measure-candidate" />
        <text x="141.18" y="169.68" class="candidate-label">1</text>
        <rect x="274.14" y="156.18" width="191.52" height="21" class="measure-candidate" />
        <text x="366.9" y="169.68" class="candidate-label">2</text>
        <rect x="465.66" y="156.18" width="115.14" height="21" class="measure-candidate" />
        <text x="520.23" y="169.68" class="candidate-label">3</text>
        <rect x="14.22" y="198.9" width="186.12" height="21" class="measure-candidate" />
        <text x="104.28" y="212.4" class="candidate-label">1</text>
        <rect x="200.34" y="198.9" width="165.78" height="21" class="measure-candidate" />
        <text x="280.23" y="212.4" class="candidate-label">2</text>
        <rect x="366.12" y="198.9" width="78" height="21" class="measure-candidate" />
        <text x="402.12" y="212.4" class="candidate-label">3</text>
        <rect x="444.12" y="198.9" width="136.5" height="21" class="measure-candidate" />
        <text x="509.37" y="212.4" class="candidate-label">4</text>
        <rect x="14.22" y="281.4" width="147.36" height="21" class="measure-candidate" />
        <text x="84.9" y="294.9" class="candidate-label">1</text>
        <rect x="161.58" y="281.4" width="117.3" height="21" class="measure-candidate" />
        <text x="217.23000000000002" y="294.9" class="candidate-label">2</text>
        <rect x="278.88" y="281.4" width="150.72" height="21" class="measure-candidate" />
        <text x="351.24" y="294.9" class="candidate-label">3</text>
        <rect x="429.6" y="281.4" width="150.78" height="21" class="measure-candidate" />
        <text x="501.99" y="294.9" class="candidate-label">4</text>
        <rect x="14.22" y="363.9" width="216" height="21" class="measure-candidate" />
        <text x="119.22" y="377.4" class="candidate-label">1</text>
        <rect x="230.22" y="363.9" width="123.9" height="21" class="measure-candidate" />
        <text x="289.17" y="377.4" class="candidate-label">2</text>
        <rect x="354.12" y="363.9" width="227.16" height="21" class="measure-candidate" />
        <text x="464.7" y="377.4" class="candidate-label">3</text>
        <rect x="14.22" y="446.4" width="185.82" height="21" class="measure-candidate" />
        <text x="104.13" y="459.9" class="candidate-label">1</text>
        <rect x="200.04" y="446.4" width="155.7" height="21" class="measure-candidate" />
        <text x="274.89" y="459.9" class="candidate-label">2</text>
        <rect x="355.74" y="446.4" width="224.94" height="21" class="measure-candidate" />
        <text x="465.21000000000004" y="459.9" class="candidate-label">3</text>
        <rect x="14.22" y="528.9" width="228.66" height="21" class="measure-candidate" />
        <text x="125.55" y="542.4" class="candidate-label">1</text>
        <rect x="242.88" y="528.9" width="79.38" height="21" class="measure-candidate" />
        <text x="279.57" y="542.4" class="candidate-label">2</text>
        <rect x="322.26" y="528.9" width="178.62" height="21" class="measure-candidate" />
        <text x="408.57" y="542.4" class="candidate-label">3</text>
        <rect x="500.88" y="528.9" width="79.44" height="21" class="measure-candidate" />
        <text x="537.6" y="542.4" class="candidate-label">4</text>
        <rect x="14.22" y="611.4" width="46.56" height="21" class="measure-candidate" />
        <text x="34.5" y="624.9" class="candidate-label">1</text>
        <rect x="60.78" y="611.4" width="146.1" height="21" class="measure-candidate" />
        <text x="130.82999999999998" y="624.9" class="candidate-label">2</text>
        <rect x="206.88" y="611.4" width="97.5" height="21" class="measure-candidate" />
        <text x="252.63" y="624.9" class="candidate-label">3</text>
        <rect x="304.38" y="611.4" width="146.22" height="21" class="measure-candidate" />
        <text x="374.49" y="624.9" class="candidate-label">4</text>
        <rect x="450.6" y="611.4" width="130.02" height="21" class="measure-candidate" />
        <text x="512.61" y="624.9" class="candidate-label">5</text>
        <rect x="14.22" y="693.9" width="191.22" height="21" class="measure-candidate" />
        <text x="106.83" y="707.4" class="candidate-label">1</text>
        <rect x="205.44" y="693.9" width="107.4" height="21" class="measure-candidate" />
        <text x="256.14" y="707.4" class="candidate-label">2</text>
        <rect x="312.84" y="693.9" width="143.22" height="21" class="measure-candidate" />
        <text x="381.45" y="707.4" class="candidate-label">3</text>
        <rect x="456.06" y="693.9" width="125.28" height="21" class="measure-candidate" />
        <text x="515.7" y="707.4" class="candidate-label">4</text>
        <rect x="14.22" y="776.4" width="162.12" height="21" class="measure-candidate" />
        <text x="92.28" y="789.9" class="candidate-label">1</text>
        <rect x="176.34" y="776.4" width="16.68" height="21" class="measure-candidate" />
        <text x="181.68" y="789.9" class="candidate-label">2</text>
        <rect x="193.02" y="776.4" width="189.6" height="21" class="measure-candidate" />
        <text x="284.82" y="789.9" class="candidate-label">3</text>
        <rect x="382.62" y="776.4" width="66" height="21" class="measure-candidate" />
        <text x="412.62" y="789.9" class="candidate-label">4</text>
        <rect x="448.62" y="776.4" width="132" height="21" class="measure-candidate" />
        <text x="511.62" y="789.9" class="candidate-label">5</text>
</svg>
