<svg xmlns="http://www.w3.org/2000/svg" viewBox="0 0 595.22 842" role="img" aria-labelledby="title desc">
  <title id="title">huseyni--zeybek--agiraksak--sarizeybek--osman_pehlivan PDF vector measure candidates</title>
  <desc id="desc">17 measure candidates extracted from 9 staff rows. These are unverified candidates.</desc>
  <style>
    .page { fill: #fffdf8; stroke: #1f2937; stroke-width: 1.2; }
    .staff-band { fill: rgba(21, 94, 117, 0.06); stroke: rgba(21, 94, 117, 0.45); stroke-width: 0.8; }
    .staff-line { stroke: #334155; stroke-width: 0.55; }
    .measure-candidate { fill: rgba(217, 119, 6, 0.15); stroke: #b45309; stroke-width: 0.9; }
    .row-label { fill: #0f766e; font: 8px ui-monospace, SFMono-Regular, Consolas, monospace; }
    .candidate-label { fill: #92400e; font: 7px ui-monospace, SFMono-Regular, Consolas, monospace; text-anchor: middle; }
  </style>
  <rect x="0" y="0" width="595.22" height="842" class="page" />

      <rect x="14.22" y="106.701" width="566.621" height="20.999" class="staff-band" />
      <text x="18.22" y="101.701" class="row-label">row 1</text>
      <rect x="14.22" y="174.198" width="566.201" height="21" class="staff-band" />
      <text x="18.22" y="169.198" class="row-label">row 2</text>
      <rect x="14.22" y="241.696" width="566.201" height="20.999" class="staff-band" />
      <text x="18.22" y="236.696" class="row-label">row 3</text>
      <rect x="14.22" y="309.194" width="566.201" height="20.999" class="staff-band" />
      <text x="18.22" y="304.194" class="row-label">row 4</text>
      <rect x="14.22" y="376.691" width="566.201" height="21" class="staff-band" />
      <text x="18.22" y="371.691" class="row-label">row 5</text>
      <rect x="14.22" y="444.189" width="566.201" height="20.999" class="staff-band" />
      <text x="18.22" y="439.189" class="row-label">row 6</text>
      <rect x="14.22" y="511.687" width="566.201" height="20.999" class="staff-band" />
      <text x="18.22" y="506.687" class="row-label">row 7</text>
      <rect x="14.22" y="579.185" width="566.201" height="20.999" class="staff-band" />
      <text x="18.22" y="574.185" class="row-label">row 8</text>
      <rect x="14.22" y="646.682" width="566.741" height="21" class="staff-band" />
      <text x="18.22" y="641.682" class="row-label">row 9</text>

        <line x1="14.22" y1="106.701" x2="580.841" y2="106.701" class="staff-line" />
        <line x1="14.22" y1="111.92" x2="580.841" y2="111.92" class="staff-line" />
        <line x1="14.22" y1="117.2" x2="580.841" y2="117.2" class="staff-line" />
        <line x1="14.22" y1="122.42" x2="580.841" y2="122.42" class="staff-line" />
        <line x1="14.22" y1="127.7" x2="580.841" y2="127.7" class="staff-line" />
        <line x1="14.22" y1="174.198" x2="580.421" y2="174.198" class="staff-line" />
        <line x1="14.22" y1="179.418" x2="580.421" y2="179.418" class="staff-line" />
        <line x1="14.22" y1="184.698" x2="580.421" y2="184.698" class="staff-line" />
        <line x1="14.22" y1="189.918" x2="580.421" y2="189.918" class="staff-line" />
        <line x1="14.22" y1="195.198" x2="580.421" y2="195.198" class="staff-line" />
        <line x1="14.22" y1="241.696" x2="580.421" y2="241.696" class="staff-line" />
        <line x1="14.22" y1="246.916" x2="580.421" y2="246.916" class="staff-line" />
        <line x1="14.22" y1="252.196" x2="580.421" y2="252.196" class="staff-line" />
        <line x1="14.22" y1="257.415" x2="580.421" y2="257.415" class="staff-line" />
        <line x1="14.22" y1="262.695" x2="580.421" y2="262.695" class="staff-line" />
        <line x1="14.22" y1="309.194" x2="580.421" y2="309.194" class="staff-line" />
        <line x1="14.22" y1="314.414" x2="580.421" y2="314.414" class="staff-line" />
        <line x1="14.22" y1="319.693" x2="580.421" y2="319.693" class="staff-line" />
        <line x1="14.22" y1="324.913" x2="580.421" y2="324.913" class="staff-line" />
        <line x1="14.22" y1="330.193" x2="580.421" y2="330.193" class="staff-line" />
        <line x1="14.22" y1="376.691" x2="580.421" y2="376.691" class="staff-line" />
        <line x1="14.22" y1="381.911" x2="580.421" y2="381.911" class="staff-line" />
        <line x1="14.22" y1="387.191" x2="580.421" y2="387.191" class="staff-line" />
        <line x1="14.22" y1="392.411" x2="580.421" y2="392.411" class="staff-line" />
        <line x1="14.22" y1="397.691" x2="580.421" y2="397.691" class="staff-line" />
        <line x1="14.22" y1="444.189" x2="580.421" y2="444.189" class="staff-line" />
        <line x1="14.22" y1="449.409" x2="580.421" y2="449.409" class="staff-line" />
        <line x1="14.22" y1="454.689" x2="580.421" y2="454.689" class="staff-line" />
        <line x1="14.22" y1="459.909" x2="580.421" y2="459.909" class="staff-line" />
        <line x1="14.22" y1="465.188" x2="580.421" y2="465.188" class="staff-line" />
        <line x1="14.22" y1="511.687" x2="580.421" y2="511.687" class="staff-line" />
        <line x1="14.22" y1="516.907" x2="580.421" y2="516.907" class="staff-line" />
        <line x1="14.22" y1="522.187" x2="580.421" y2="522.187" class="staff-line" />
        <line x1="14.22" y1="527.406" x2="580.421" y2="527.406" class="staff-line" />
        <line x1="14.22" y1="532.686" x2="580.421" y2="532.686" class="staff-line" />
        <line x1="14.22" y1="579.185" x2="580.421" y2="579.185" class="staff-line" />
        <line x1="14.22" y1="584.404" x2="580.421" y2="584.404" class="staff-line" />
        <line x1="14.22" y1="589.684" x2="580.421" y2="589.684" class="staff-line" />
        <line x1="14.22" y1="594.904" x2="580.421" y2="594.904" class="staff-line" />
        <line x1="14.22" y1="600.184" x2="580.421" y2="600.184" class="staff-line" />
        <line x1="14.22" y1="646.682" x2="580.961" y2="646.682" class="staff-line" />
        <line x1="14.22" y1="651.902" x2="580.961" y2="651.902" class="staff-line" />
        <line x1="14.22" y1="657.182" x2="580.961" y2="657.182" class="staff-line" />
        <line x1="14.22" y1="662.402" x2="580.961" y2="662.402" class="staff-line" />
        <line x1="14.22" y1="667.682" x2="580.961" y2="667.682" class="staff-line" />

        <rect x="14.22" y="106.701" width="60.897" height="20.999" class="measure-candidate" />
        <text x="41.6685" y="120.20049999999999" class="candidate-label">1</text>
        <rect x="78.837" y="106.701" width="502.004" height="20.999" class="measure-candidate" />
        <text x="326.839" y="120.20049999999999" class="candidate-label">2</text>
        <rect x="14.22" y="174.198" width="566.201" height="21" class="measure-candidate" />
        <text x="294.32050000000004" y="187.698" class="candidate-label">1</text>
        <rect x="14.22" y="241.696" width="566.201" height="20.999" class="measure-candidate" />
        <text x="294.32050000000004" y="255.1955" class="candidate-label">1</text>
        <rect x="14.22" y="309.194" width="566.201" height="20.999" class="measure-candidate" />
        <text x="294.32050000000004" y="322.69350000000003" class="candidate-label">1</text>
        <rect x="14.22" y="376.691" width="99.116" height="21" class="measure-candidate" />
        <text x="60.778" y="390.191" class="candidate-label">1</text>
        <rect x="113.336" y="376.691" width="124.616" height="21" class="measure-candidate" />
        <text x="172.644" y="390.191" class="candidate-label">2</text>
        <rect x="237.952" y="376.691" width="342.469" height="21" class="measure-candidate" />
        <text x="406.1865" y="390.191" class="candidate-label">3</text>
        <rect x="14.22" y="444.189" width="67.977" height="20.999" class="measure-candidate" />
        <text x="45.2085" y="457.68850000000003" class="candidate-label">1</text>
        <rect x="82.197" y="444.189" width="498.224" height="20.999" class="measure-candidate" />
        <text x="328.30899999999997" y="457.68850000000003" class="candidate-label">2</text>
        <rect x="14.22" y="511.687" width="566.201" height="20.999" class="measure-candidate" />
        <text x="294.32050000000004" y="525.1865" class="candidate-label">1</text>
        <rect x="14.22" y="579.185" width="566.201" height="20.999" class="measure-candidate" />
        <text x="294.32050000000004" y="592.6845" class="candidate-label">1</text>
        <rect x="14.22" y="646.682" width="36.658" height="21" class="measure-candidate" />
        <text x="29.549" y="660.182" class="candidate-label">1</text>
        <rect x="54.658" y="646.682" width="55.318" height="21" class="measure-candidate" />
        <text x="79.31700000000001" y="660.182" class="candidate-label">2</text>
        <rect x="109.976" y="646.682" width="117.776" height="21" class="measure-candidate" />
        <text x="165.864" y="660.182" class="candidate-label">3</text>
        <rect x="227.752" y="646.682" width="117.776" height="21" class="measure-candidate" />
        <text x="283.64" y="660.182" class="candidate-label">4</text>
        <rect x="345.528" y="646.682" width="235.433" height="21" class="measure-candidate" />
        <text x="460.2445" y="660.182" class="candidate-label">5</text>
</svg>
