<svg xmlns="http://www.w3.org/2000/svg" viewBox="0 0 595.22 842" role="img" aria-labelledby="title desc">
  <title id="title">kurdilihicazkar--sarki--aksak--gidelim_goksuya--lavtaci_hristo PDF vector measure candidates</title>
  <desc id="desc">46 measure candidates extracted from 12 staff rows. These are unverified candidates.</desc>
  <style>
    .page { fill: #fffdf8; stroke: #1f2937; stroke-width: 1.2; }
    .staff-band { fill: rgba(21, 94, 117, 0.06); stroke: rgba(21, 94, 117, 0.45); stroke-width: 0.8; }
    .staff-line { stroke: #334155; stroke-width: 0.55; }
    .measure-candidate { fill: rgba(217, 119, 6, 0.15); stroke: #b45309; stroke-width: 0.9; }
    .row-label { fill: #0f766e; font: 8px ui-monospace, SFMono-Regular, Consolas, monospace; }
    .candidate-label { fill: #92400e; font: 7px ui-monospace, SFMono-Regular, Consolas, monospace; text-anchor: middle; }
  </style>
  <rect x="0" y="0" width="595.22" height="842" class="page" />

      <rect x="14.615" y="74.799" width="565.571" height="20.962" class="staff-band" />
      <text x="18.615000000000002" y="69.799" class="row-label">row 1</text>
      <rect x="14.615" y="116.724" width="565.091" height="20.963" class="staff-band" />
      <text x="18.615000000000002" y="111.724" class="row-label">row 2</text>
      <rect x="14.615" y="155.654" width="565.451" height="20.963" class="staff-band" />
      <text x="18.615000000000002" y="150.654" class="row-label">row 3</text>
      <rect x="14.615" y="197.58" width="566.11" height="20.962" class="staff-band" />
      <text x="18.615000000000002" y="192.58" class="row-label">row 4</text>
      <rect x="14.615" y="236.51" width="565.571" height="20.963" class="staff-band" />
      <text x="18.615000000000002" y="231.51" class="row-label">row 5</text>
      <rect x="14.615" y="278.435" width="565.151" height="20.963" class="staff-band" />
      <text x="18.615000000000002" y="273.435" class="row-label">row 6</text>
      <rect x="14.615" y="359.291" width="565.571" height="20.963" class="staff-band" />
      <text x="18.615000000000002" y="354.291" class="row-label">row 7</text>
      <rect x="14.615" y="440.147" width="565.451" height="20.962" class="staff-band" />
      <text x="18.615000000000002" y="435.147" class="row-label">row 8</text>
      <rect x="14.615" y="521.002" width="563.594" height="20.963" class="staff-band" />
      <text x="18.615000000000002" y="516.002" class="row-label">row 9</text>
      <rect x="14.615" y="601.858" width="566.229" height="20.963" class="staff-band" />
      <text x="18.615000000000002" y="596.858" class="row-label">row 10</text>
      <rect x="14.615" y="682.714" width="565.151" height="20.962" class="staff-band" />
      <text x="18.615000000000002" y="677.714" class="row-label">row 11</text>
      <rect x="14.615" y="763.57" width="564.193" height="20.962" class="staff-band" />
      <text x="18.615000000000002" y="758.57" class="row-label">row 12</text>

        <line x1="14.615" y1="74.799" x2="580.186" y2="74.799" class="staff-line" />
        <line x1="14.615" y1="80.009" x2="580.186" y2="80.009" class="staff-line" />
        <line x1="14.615" y1="85.28" x2="580.186" y2="85.28" class="staff-line" />
        <line x1="14.615" y1="90.491" x2="580.186" y2="90.491" class="staff-line" />
        <line x1="14.615" y1="95.761" x2="580.186" y2="95.761" class="staff-line" />
        <line x1="14.615" y1="116.724" x2="579.706" y2="116.724" class="staff-line" />
        <line x1="14.615" y1="121.935" x2="579.706" y2="121.935" class="staff-line" />
        <line x1="14.615" y1="127.205" x2="579.706" y2="127.205" class="staff-line" />
        <line x1="14.615" y1="132.416" x2="579.706" y2="132.416" class="staff-line" />
        <line x1="14.615" y1="137.687" x2="579.706" y2="137.687" class="staff-line" />
        <line x1="14.615" y1="155.654" x2="580.066" y2="155.654" class="staff-line" />
        <line x1="14.615" y1="160.865" x2="580.066" y2="160.865" class="staff-line" />
        <line x1="14.615" y1="166.136" x2="580.066" y2="166.136" class="staff-line" />
        <line x1="14.615" y1="171.346" x2="580.066" y2="171.346" class="staff-line" />
        <line x1="14.615" y1="176.617" x2="580.066" y2="176.617" class="staff-line" />
        <line x1="14.615" y1="197.58" x2="580.725" y2="197.58" class="staff-line" />
        <line x1="14.615" y1="202.79" x2="580.725" y2="202.79" class="staff-line" />
        <line x1="14.615" y1="208.061" x2="580.725" y2="208.061" class="staff-line" />
        <line x1="14.615" y1="213.272" x2="580.725" y2="213.272" class="staff-line" />
        <line x1="14.615" y1="218.542" x2="580.725" y2="218.542" class="staff-line" />
        <line x1="14.615" y1="236.51" x2="580.186" y2="236.51" class="staff-line" />
        <line x1="14.615" y1="241.721" x2="580.186" y2="241.721" class="staff-line" />
        <line x1="14.615" y1="246.991" x2="580.186" y2="246.991" class="staff-line" />
        <line x1="14.615" y1="252.202" x2="580.186" y2="252.202" class="staff-line" />
        <line x1="14.615" y1="257.473" x2="580.186" y2="257.473" class="staff-line" />
        <line x1="14.615" y1="278.435" x2="579.766" y2="278.435" class="staff-line" />
        <line x1="14.615" y1="283.646" x2="579.766" y2="283.646" class="staff-line" />
        <line x1="14.615" y1="288.917" x2="579.766" y2="288.917" class="staff-line" />
        <line x1="14.615" y1="294.127" x2="579.766" y2="294.127" class="staff-line" />
        <line x1="14.615" y1="299.398" x2="579.766" y2="299.398" class="staff-line" />
        <line x1="14.615" y1="359.291" x2="580.186" y2="359.291" class="staff-line" />
        <line x1="14.615" y1="364.502" x2="580.186" y2="364.502" class="staff-line" />
        <line x1="14.615" y1="369.772" x2="580.186" y2="369.772" class="staff-line" />
        <line x1="14.615" y1="374.983" x2="580.186" y2="374.983" class="staff-line" />
        <line x1="14.615" y1="380.254" x2="580.186" y2="380.254" class="staff-line" />
        <line x1="14.615" y1="440.147" x2="580.066" y2="440.147" class="staff-line" />
        <line x1="14.615" y1="445.357" x2="580.066" y2="445.357" class="staff-line" />
        <line x1="14.615" y1="450.628" x2="580.066" y2="450.628" class="staff-line" />
        <line x1="14.615" y1="455.839" x2="580.066" y2="455.839" class="staff-line" />
        <line x1="14.615" y1="461.109" x2="580.066" y2="461.109" class="staff-line" />
        <line x1="14.615" y1="521.002" x2="578.209" y2="521.002" class="staff-line" />
        <line x1="14.615" y1="526.213" x2="578.209" y2="526.213" class="staff-line" />
        <line x1="14.615" y1="531.484" x2="578.209" y2="531.484" class="staff-line" />
        <line x1="14.615" y1="536.694" x2="578.209" y2="536.694" class="staff-line" />
        <line x1="14.615" y1="541.965" x2="578.209" y2="541.965" class="staff-line" />
        <line x1="14.615" y1="601.858" x2="580.844" y2="601.858" class="staff-line" />
        <line x1="14.615" y1="607.069" x2="580.844" y2="607.069" class="staff-line" />
        <line x1="14.615" y1="612.339" x2="580.844" y2="612.339" class="staff-line" />
        <line x1="14.615" y1="617.55" x2="580.844" y2="617.55" class="staff-line" />
        <line x1="14.615" y1="622.821" x2="580.844" y2="622.821" class="staff-line" />
        <line x1="14.615" y1="682.714" x2="579.766" y2="682.714" class="staff-line" />
        <line x1="14.615" y1="687.924" x2="579.766" y2="687.924" class="staff-line" />
        <line x1="14.615" y1="693.195" x2="579.766" y2="693.195" class="staff-line" />
        <line x1="14.615" y1="698.406" x2="579.766" y2="698.406" class="staff-line" />
        <line x1="14.615" y1="703.676" x2="579.766" y2="703.676" class="staff-line" />
        <line x1="14.615" y1="763.57" x2="578.808" y2="763.57" class="staff-line" />
        <line x1="14.615" y1="768.78" x2="578.808" y2="768.78" class="staff-line" />
        <line x1="14.615" y1="774.051" x2="578.808" y2="774.051" class="staff-line" />
        <line x1="14.615" y1="779.262" x2="578.808" y2="779.262" class="staff-line" />
        <line x1="14.615" y1="784.532" x2="578.808" y2="784.532" class="staff-line" />

        <rect x="14.615" y="74.799" width="42.105" height="20.962" class="measure-candidate" />
        <text x="32.6675" y="88.28" class="candidate-label">1</text>
        <rect x="60.493" y="74.799" width="229.031" height="20.962" class="measure-candidate" />
        <text x="172.0085" y="88.28" class="candidate-label">2</text>
        <rect x="289.524" y="74.799" width="58.336" height="20.962" class="measure-candidate" />
        <text x="315.692" y="88.28" class="candidate-label">3</text>
        <rect x="347.86" y="74.799" width="145.361" height="20.962" class="measure-candidate" />
        <text x="417.5405" y="88.28" class="candidate-label">4</text>
        <rect x="493.221" y="74.799" width="86.965" height="20.962" class="measure-candidate" />
        <text x="533.7035" y="88.28" class="candidate-label">5</text>
        <rect x="14.615" y="116.724" width="66.002" height="20.963" class="measure-candidate" />
        <text x="44.616" y="130.2055" class="candidate-label">1</text>
        <rect x="84.39" y="116.724" width="147.457" height="20.963" class="measure-candidate" />
        <text x="155.11849999999998" y="130.2055" class="candidate-label">2</text>
        <rect x="231.847" y="116.724" width="151.23" height="20.963" class="measure-candidate" />
        <text x="304.462" y="130.2055" class="candidate-label">3</text>
        <rect x="383.077" y="116.724" width="136.257" height="20.963" class="measure-candidate" />
        <text x="448.20550000000003" y="130.2055" class="candidate-label">4</text>
        <rect x="519.334" y="116.724" width="60.372" height="20.963" class="measure-candidate" />
        <text x="546.52" y="130.2055" class="candidate-label">5</text>
        <rect x="14.615" y="155.654" width="170.036" height="20.963" class="measure-candidate" />
        <text x="96.633" y="169.1355" class="candidate-label">1</text>
        <rect x="184.651" y="155.654" width="209.327" height="20.963" class="measure-candidate" />
        <text x="286.3145" y="169.1355" class="candidate-label">2</text>
        <rect x="393.978" y="155.654" width="186.088" height="20.963" class="measure-candidate" />
        <text x="484.022" y="169.1355" class="candidate-label">3</text>
        <rect x="14.615" y="197.58" width="182.434" height="20.962" class="measure-candidate" />
        <text x="102.832" y="211.061" class="candidate-label">1</text>
        <rect x="197.049" y="197.58" width="187.166" height="20.962" class="measure-candidate" />
        <text x="287.632" y="211.061" class="candidate-label">2</text>
        <rect x="384.215" y="197.58" width="196.51" height="20.962" class="measure-candidate" />
        <text x="479.46999999999997" y="211.061" class="candidate-label">3</text>
        <rect x="14.615" y="236.51" width="269.699" height="20.963" class="measure-candidate" />
        <text x="146.46450000000002" y="249.9915" class="candidate-label">1</text>
        <rect x="288.087" y="236.51" width="269.519" height="20.963" class="measure-candidate" />
        <text x="419.8465" y="249.9915" class="candidate-label">2</text>
        <rect x="557.606" y="236.51" width="22.58" height="20.963" class="measure-candidate" />
        <text x="565.896" y="249.9915" class="candidate-label">3</text>
        <rect x="14.615" y="278.435" width="316.056" height="20.963" class="measure-candidate" />
        <text x="169.643" y="291.9165" class="candidate-label">1</text>
        <rect x="330.671" y="278.435" width="249.095" height="20.963" class="measure-candidate" />
        <text x="452.2185" y="291.9165" class="candidate-label">2</text>
        <rect x="14.615" y="359.291" width="42.105" height="20.963" class="measure-candidate" />
        <text x="32.6675" y="372.7725" class="candidate-label">1</text>
        <rect x="60.493" y="359.291" width="205.553" height="20.963" class="measure-candidate" />
        <text x="160.2695" y="372.7725" class="candidate-label">2</text>
        <rect x="266.046" y="359.291" width="204.775" height="20.963" class="measure-candidate" />
        <text x="365.4335" y="372.7725" class="candidate-label">3</text>
        <rect x="470.821" y="359.291" width="109.365" height="20.963" class="measure-candidate" />
        <text x="522.5035" y="372.7725" class="candidate-label">4</text>
        <rect x="14.615" y="440.147" width="158.417" height="20.962" class="measure-candidate" />
        <text x="90.8235" y="453.628" class="candidate-label">1</text>
        <rect x="173.032" y="440.147" width="174.409" height="20.962" class="measure-candidate" />
        <text x="257.2365" y="453.628" class="candidate-label">2</text>
        <rect x="347.441" y="440.147" width="232.625" height="20.962" class="measure-candidate" />
        <text x="460.7535" y="453.628" class="candidate-label">3</text>
        <rect x="14.615" y="521.002" width="187.525" height="20.963" class="measure-candidate" />
        <text x="105.3775" y="534.4834999999999" class="candidate-label">1</text>
        <rect x="202.14" y="521.002" width="116.013" height="20.963" class="measure-candidate" />
        <text x="257.1465" y="534.4834999999999" class="candidate-label">2</text>
        <rect x="321.926" y="521.002" width="238.435" height="20.963" class="measure-candidate" />
        <text x="438.1435" y="534.4834999999999" class="candidate-label">3</text>
        <rect x="560.361" y="521.002" width="17.848" height="20.963" class="measure-candidate" />
        <text x="566.285" y="534.4834999999999" class="candidate-label">4</text>
        <rect x="14.615" y="601.858" width="42.105" height="20.963" class="measure-candidate" />
        <text x="32.6675" y="615.3394999999999" class="candidate-label">1</text>
        <rect x="60.493" y="601.858" width="156.141" height="20.963" class="measure-candidate" />
        <text x="135.5635" y="615.3394999999999" class="candidate-label">2</text>
        <rect x="216.634" y="601.858" width="17.908" height="20.963" class="measure-candidate" />
        <text x="222.588" y="615.3394999999999" class="candidate-label">3</text>
        <rect x="234.542" y="601.858" width="44.441" height="20.963" class="measure-candidate" />
        <text x="253.7625" y="615.3394999999999" class="candidate-label">4</text>
        <rect x="278.983" y="601.858" width="17.788" height="20.963" class="measure-candidate" />
        <text x="284.877" y="615.3394999999999" class="candidate-label">5</text>
        <rect x="296.771" y="601.858" width="106.37" height="20.963" class="measure-candidate" />
        <text x="346.956" y="615.3394999999999" class="candidate-label">6</text>
        <rect x="403.141" y="601.858" width="177.703" height="20.963" class="measure-candidate" />
        <text x="488.9925" y="615.3394999999999" class="candidate-label">7</text>
        <rect x="14.615" y="682.714" width="92.056" height="20.962" class="measure-candidate" />
        <text x="57.643" y="696.195" class="candidate-label">1</text>
        <rect x="106.671" y="682.714" width="174.229" height="20.962" class="measure-candidate" />
        <text x="190.7855" y="696.195" class="candidate-label">2</text>
        <rect x="280.9" y="682.714" width="25.035" height="20.962" class="measure-candidate" />
        <text x="290.41749999999996" y="696.195" class="candidate-label">3</text>
        <rect x="305.935" y="682.714" width="273.831" height="20.962" class="measure-candidate" />
        <text x="439.8505" y="696.195" class="candidate-label">4</text>
        <rect x="14.615" y="763.57" width="315.397" height="20.962" class="measure-candidate" />
        <text x="169.3135" y="777.051" class="candidate-label">1</text>
        <rect x="330.012" y="763.57" width="22.58" height="20.962" class="measure-candidate" />
        <text x="338.302" y="777.051" class="candidate-label">2</text>
        <rect x="356.365" y="763.57" width="222.443" height="20.962" class="measure-candidate" />
        <text x="464.5865" y="777.051" class="candidate-label">3</text>
</svg>
