<svg xmlns="http://www.w3.org/2000/svg" viewBox="0 0 595.22 842" role="img" aria-labelledby="title desc">
  <title id="title">muhayyer--etud--sofyan----hasan_esen PDF vector measure candidates</title>
  <desc id="desc">17 measure candidates extracted from 4 staff rows. These are unverified candidates.</desc>
  <style>
    .page { fill: #fffdf8; stroke: #1f2937; stroke-width: 1.2; }
    .staff-band { fill: rgba(21, 94, 117, 0.06); stroke: rgba(21, 94, 117, 0.45); stroke-width: 0.8; }
    .staff-line { stroke: #334155; stroke-width: 0.55; }
    .measure-candidate { fill: rgba(217, 119, 6, 0.15); stroke: #b45309; stroke-width: 0.9; }
    .row-label { fill: #0f766e; font: 8px ui-monospace, SFMono-Regular, Consolas, monospace; }
    .candidate-label { fill: #92400e; font: 7px ui-monospace, SFMono-Regular, Consolas, monospace; text-anchor: middle; }
  </style>
  <rect x="0" y="0" width="595.22" height="842" class="page" />

      <rect x="14.22" y="111.18" width="566.58" height="21" class="staff-band" />
      <text x="18.22" y="106.18" class="row-label">row 1</text>
      <rect x="14.22" y="186.9" width="567.3" height="21" class="staff-band" />
      <text x="18.22" y="181.9" class="row-label">row 2</text>
      <rect x="14.22" y="262.68" width="565.92" height="21" class="staff-band" />
      <text x="18.22" y="257.68" class="row-label">row 3</text>
      <rect x="14.22" y="338.4" width="566.58" height="21" class="staff-band" />
      <text x="18.22" y="333.4" class="row-label">row 4</text>

        <line x1="14.22" y1="111.18" x2="580.8" y2="111.18" class="staff-line" />
        <line x1="14.22" y1="116.4" x2="580.8" y2="116.4" class="staff-line" />
        <line x1="14.22" y1="121.68" x2="580.8" y2="121.68" class="staff-line" />
        <line x1="14.22" y1="126.9" x2="580.8" y2="126.9" class="staff-line" />
        <line x1="14.22" y1="132.18" x2="580.8" y2="132.18" class="staff-line" />
        <line x1="14.22" y1="186.9" x2="581.52" y2="186.9" class="staff-line" />
        <line x1="14.22" y1="192.18" x2="581.52" y2="192.18" class="staff-line" />
        <line x1="14.22" y1="197.4" x2="581.52" y2="197.4" class="staff-line" />
        <line x1="14.22" y1="202.68" x2="581.52" y2="202.68" class="staff-line" />
        <line x1="14.22" y1="207.9" x2="581.52" y2="207.9" class="staff-line" />
        <line x1="14.22" y1="262.68" x2="580.14" y2="262.68" class="staff-line" />
        <line x1="14.22" y1="267.9" x2="580.14" y2="267.9" class="staff-line" />
        <line x1="14.22" y1="273.18" x2="580.14" y2="273.18" class="staff-line" />
        <line x1="14.22" y1="278.4" x2="580.14" y2="278.4" class="staff-line" />
        <line x1="14.22" y1="283.68" x2="580.14" y2="283.68" class="staff-line" />
        <line x1="14.22" y1="338.4" x2="580.8" y2="338.4" class="staff-line" />
        <line x1="14.22" y1="343.68" x2="580.8" y2="343.68" class="staff-line" />
        <line x1="14.22" y1="348.9" x2="580.8" y2="348.9" class="staff-line" />
        <line x1="14.22" y1="354.18" x2="580.8" y2="354.18" class="staff-line" />
        <line x1="14.22" y1="359.4" x2="580.8" y2="359.4" class="staff-line" />

        <rect x="14.22" y="111.18" width="142.38" height="21" class="measure-candidate" />
        <text x="82.41" y="124.68" class="candidate-label">1</text>
        <rect x="156.6" y="111.18" width="136.38" height="21" class="measure-candidate" />
        <text x="221.79" y="124.68" class="candidate-label">2</text>
        <rect x="292.98" y="111.18" width="136.32" height="21" class="measure-candidate" />
        <text x="358.14" y="124.68" class="candidate-label">3</text>
        <rect x="429.3" y="111.18" width="45.6" height="21" class="measure-candidate" />
        <text x="449.1" y="124.68" class="candidate-label">4</text>
        <rect x="474.9" y="111.18" width="105.9" height="21" class="measure-candidate" />
        <text x="524.85" y="124.68" class="candidate-label">5</text>
        <rect x="14.22" y="186.9" width="131.46" height="21" class="measure-candidate" />
        <text x="76.95" y="200.4" class="candidate-label">1</text>
        <rect x="145.68" y="186.9" width="170.52" height="21" class="measure-candidate" />
        <text x="227.94" y="200.4" class="candidate-label">2</text>
        <rect x="316.2" y="186.9" width="189.48" height="21" class="measure-candidate" />
        <text x="407.94" y="200.4" class="candidate-label">3</text>
        <rect x="505.68" y="186.9" width="75.84" height="21" class="measure-candidate" />
        <text x="540.6" y="200.4" class="candidate-label">4</text>
        <rect x="14.22" y="262.68" width="127.92" height="21" class="measure-candidate" />
        <text x="75.18" y="276.18" class="candidate-label">1</text>
        <rect x="142.14" y="262.68" width="146.04" height="21" class="measure-candidate" />
        <text x="212.15999999999997" y="276.18" class="candidate-label">2</text>
        <rect x="288.18" y="262.68" width="164.22" height="21" class="measure-candidate" />
        <text x="367.29" y="276.18" class="candidate-label">3</text>
        <rect x="452.4" y="262.68" width="127.74" height="21" class="measure-candidate" />
        <text x="513.27" y="276.18" class="candidate-label">4</text>
        <rect x="14.22" y="338.4" width="169.26" height="21" class="measure-candidate" />
        <text x="95.85" y="351.9" class="candidate-label">1</text>
        <rect x="183.48" y="338.4" width="154.74" height="21" class="measure-candidate" />
        <text x="257.85" y="351.9" class="candidate-label">2</text>
        <rect x="338.22" y="338.4" width="154.68" height="21" class="measure-candidate" />
        <text x="412.56000000000006" y="351.9" class="candidate-label">3</text>
        <rect x="492.9" y="338.4" width="87.9" height="21" class="measure-candidate" />
        <text x="533.85" y="351.9" class="candidate-label">4</text>
</svg>
