<svg xmlns="http://www.w3.org/2000/svg" viewBox="0 0 595.22 842" role="img" aria-labelledby="title desc">
  <title id="title">rast--agirsemai--aksaksemai--cekmis_yuzune--tascizade_recep_celebi PDF vector measure candidates</title>
  <desc id="desc">33 measure candidates extracted from 13 staff rows. These are unverified candidates.</desc>
  <style>
    .page { fill: #fffdf8; stroke: #1f2937; stroke-width: 1.2; }
    .staff-band { fill: rgba(21, 94, 117, 0.06); stroke: rgba(21, 94, 117, 0.45); stroke-width: 0.8; }
    .staff-line { stroke: #334155; stroke-width: 0.55; }
    .measure-candidate { fill: rgba(217, 119, 6, 0.15); stroke: #b45309; stroke-width: 0.9; }
    .row-label { fill: #0f766e; font: 8px ui-monospace, SFMono-Regular, Consolas, monospace; }
    .candidate-label { fill: #92400e; font: 7px ui-monospace, SFMono-Regular, Consolas, monospace; text-anchor: middle; }
  </style>
  <rect x="0" y="0" width="595.22" height="842" class="page" />

      <rect x="14.22" y="73.68" width="566.34" height="21" class="staff-band" />
      <text x="18.22" y="68.68" class="row-label">row 1</text>
      <rect x="14.22" y="114.18" width="566.34" height="21" class="staff-band" />
      <text x="18.22" y="109.18" class="row-label">row 2</text>
      <rect x="14.22" y="151.68" width="566.76" height="21" class="staff-band" />
      <text x="18.22" y="146.68" class="row-label">row 3</text>
      <rect x="14.22" y="192.18" width="566.7" height="21" class="staff-band" />
      <text x="18.22" y="187.18" class="row-label">row 4</text>
      <rect x="14.22" y="229.68" width="566.76" height="21" class="staff-band" />
      <text x="18.22" y="224.68" class="row-label">row 5</text>
      <rect x="14.22" y="270.18" width="566.34" height="21" class="staff-band" />
      <text x="18.22" y="265.18" class="row-label">row 6</text>
      <rect x="14.22" y="307.68" width="566.58" height="21" class="staff-band" />
      <text x="18.22" y="302.68" class="row-label">row 7</text>
      <rect x="14.22" y="348.18" width="567.24" height="21" class="staff-band" />
      <text x="18.22" y="343.18" class="row-label">row 8</text>
      <rect x="14.22" y="426.18" width="567.06" height="21" class="staff-band" />
      <text x="18.22" y="421.18" class="row-label">row 9</text>
      <rect x="14.22" y="504.18" width="567.24" height="21" class="staff-band" />
      <text x="18.22" y="499.18" class="row-label">row 10</text>
      <rect x="14.22" y="582.18" width="566.7" height="21" class="staff-band" />
      <text x="18.22" y="577.18" class="row-label">row 11</text>
      <rect x="14.22" y="660.18" width="567.24" height="21" class="staff-band" />
      <text x="18.22" y="655.18" class="row-label">row 12</text>
      <rect x="14.22" y="738.18" width="567.06" height="21" class="staff-band" />
      <text x="18.22" y="733.18" class="row-label">row 13</text>

        <line x1="14.22" y1="73.68" x2="580.56" y2="73.68" class="staff-line" />
        <line x1="14.22" y1="78.9" x2="580.56" y2="78.9" class="staff-line" />
        <line x1="14.22" y1="84.18" x2="580.56" y2="84.18" class="staff-line" />
        <line x1="14.22" y1="89.4" x2="580.56" y2="89.4" class="staff-line" />
        <line x1="14.22" y1="94.68" x2="580.56" y2="94.68" class="staff-line" />
        <line x1="14.22" y1="114.18" x2="580.56" y2="114.18" class="staff-line" />
        <line x1="14.22" y1="119.4" x2="580.56" y2="119.4" class="staff-line" />
        <line x1="14.22" y1="124.68" x2="580.56" y2="124.68" class="staff-line" />
        <line x1="14.22" y1="129.9" x2="580.56" y2="129.9" class="staff-line" />
        <line x1="14.22" y1="135.18" x2="580.56" y2="135.18" class="staff-line" />
        <line x1="14.22" y1="151.68" x2="580.98" y2="151.68" class="staff-line" />
        <line x1="14.22" y1="156.9" x2="580.98" y2="156.9" class="staff-line" />
        <line x1="14.22" y1="162.18" x2="580.98" y2="162.18" class="staff-line" />
        <line x1="14.22" y1="167.4" x2="580.98" y2="167.4" class="staff-line" />
        <line x1="14.22" y1="172.68" x2="580.98" y2="172.68" class="staff-line" />
        <line x1="14.22" y1="192.18" x2="580.92" y2="192.18" class="staff-line" />
        <line x1="14.22" y1="197.4" x2="580.92" y2="197.4" class="staff-line" />
        <line x1="14.22" y1="202.68" x2="580.92" y2="202.68" class="staff-line" />
        <line x1="14.22" y1="207.9" x2="580.92" y2="207.9" class="staff-line" />
        <line x1="14.22" y1="213.18" x2="580.92" y2="213.18" class="staff-line" />
        <line x1="14.22" y1="229.68" x2="580.98" y2="229.68" class="staff-line" />
        <line x1="14.22" y1="234.9" x2="580.98" y2="234.9" class="staff-line" />
        <line x1="14.22" y1="240.18" x2="580.98" y2="240.18" class="staff-line" />
        <line x1="14.22" y1="245.4" x2="580.98" y2="245.4" class="staff-line" />
        <line x1="14.22" y1="250.68" x2="580.98" y2="250.68" class="staff-line" />
        <line x1="14.22" y1="270.18" x2="580.56" y2="270.18" class="staff-line" />
        <line x1="14.22" y1="275.4" x2="580.56" y2="275.4" class="staff-line" />
        <line x1="14.22" y1="280.68" x2="580.56" y2="280.68" class="staff-line" />
        <line x1="14.22" y1="285.9" x2="580.56" y2="285.9" class="staff-line" />
        <line x1="14.22" y1="291.18" x2="580.56" y2="291.18" class="staff-line" />
        <line x1="14.22" y1="307.68" x2="580.8" y2="307.68" class="staff-line" />
        <line x1="14.22" y1="312.9" x2="580.8" y2="312.9" class="staff-line" />
        <line x1="14.22" y1="318.18" x2="580.8" y2="318.18" class="staff-line" />
        <line x1="14.22" y1="323.4" x2="580.8" y2="323.4" class="staff-line" />
        <line x1="14.22" y1="328.68" x2="580.8" y2="328.68" class="staff-line" />
        <line x1="14.22" y1="348.18" x2="581.46" y2="348.18" class="staff-line" />
        <line x1="14.22" y1="353.4" x2="581.46" y2="353.4" class="staff-line" />
        <line x1="14.22" y1="358.68" x2="581.46" y2="358.68" class="staff-line" />
        <line x1="14.22" y1="363.9" x2="581.46" y2="363.9" class="staff-line" />
        <line x1="14.22" y1="369.18" x2="581.46" y2="369.18" class="staff-line" />
        <line x1="14.22" y1="426.18" x2="581.28" y2="426.18" class="staff-line" />
        <line x1="14.22" y1="431.4" x2="581.28" y2="431.4" class="staff-line" />
        <line x1="14.22" y1="436.68" x2="581.28" y2="436.68" class="staff-line" />
        <line x1="14.22" y1="441.9" x2="581.28" y2="441.9" class="staff-line" />
        <line x1="14.22" y1="447.18" x2="581.28" y2="447.18" class="staff-line" />
        <line x1="14.22" y1="504.18" x2="581.46" y2="504.18" class="staff-line" />
        <line x1="14.22" y1="509.4" x2="581.46" y2="509.4" class="staff-line" />
        <line x1="14.22" y1="514.68" x2="581.46" y2="514.68" class="staff-line" />
        <line x1="14.22" y1="519.9" x2="581.46" y2="519.9" class="staff-line" />
        <line x1="14.22" y1="525.18" x2="581.46" y2="525.18" class="staff-line" />
        <line x1="14.22" y1="582.18" x2="580.92" y2="582.18" class="staff-line" />
        <line x1="14.22" y1="587.4" x2="580.92" y2="587.4" class="staff-line" />
        <line x1="14.22" y1="592.68" x2="580.92" y2="592.68" class="staff-line" />
        <line x1="14.22" y1="597.9" x2="580.92" y2="597.9" class="staff-line" />
        <line x1="14.22" y1="603.18" x2="580.92" y2="603.18" class="staff-line" />
        <line x1="14.22" y1="660.18" x2="581.46" y2="660.18" class="staff-line" />
        <line x1="14.22" y1="665.4" x2="581.46" y2="665.4" class="staff-line" />
        <line x1="14.22" y1="670.68" x2="581.46" y2="670.68" class="staff-line" />
        <line x1="14.22" y1="675.9" x2="581.46" y2="675.9" class="staff-line" />
        <line x1="14.22" y1="681.18" x2="581.46" y2="681.18" class="staff-line" />
        <line x1="14.22" y1="738.18" x2="581.28" y2="738.18" class="staff-line" />
        <line x1="14.22" y1="743.4" x2="581.28" y2="743.4" class="staff-line" />
        <line x1="14.22" y1="748.68" x2="581.28" y2="748.68" class="staff-line" />
        <line x1="14.22" y1="753.9" x2="581.28" y2="753.9" class="staff-line" />
        <line x1="14.22" y1="759.18" x2="581.28" y2="759.18" class="staff-line" />

        <rect x="14.22" y="73.68" width="293.46" height="21" class="measure-candidate" />
        <text x="157.95" y="87.18" class="candidate-label">1</text>
        <rect x="307.68" y="73.68" width="272.88" height="21" class="measure-candidate" />
        <text x="441.12" y="87.18" class="candidate-label">2</text>
        <rect x="14.22" y="114.18" width="186.36" height="21" class="measure-candidate" />
        <text x="104.4" y="127.68" class="candidate-label">1</text>
        <rect x="200.58" y="114.18" width="208.98" height="21" class="measure-candidate" />
        <text x="302.07" y="127.68" class="candidate-label">2</text>
        <rect x="409.56" y="114.18" width="171" height="21" class="measure-candidate" />
        <text x="492.06" y="127.68" class="candidate-label">3</text>
        <rect x="14.22" y="151.68" width="315.66" height="21" class="measure-candidate" />
        <text x="169.05" y="165.18" class="candidate-label">1</text>
        <rect x="329.88" y="151.68" width="251.1" height="21" class="measure-candidate" />
        <text x="452.43" y="165.18" class="candidate-label">2</text>
        <rect x="14.22" y="192.18" width="251.52" height="21" class="measure-candidate" />
        <text x="136.98000000000002" y="205.68" class="candidate-label">1</text>
        <rect x="265.74" y="192.18" width="315.18" height="21" class="measure-candidate" />
        <text x="420.33000000000004" y="205.68" class="candidate-label">2</text>
        <rect x="14.22" y="229.68" width="242.82" height="21" class="measure-candidate" />
        <text x="132.63" y="243.18" class="candidate-label">1</text>
        <rect x="257.04" y="229.68" width="323.94" height="21" class="measure-candidate" />
        <text x="416.01" y="243.18" class="candidate-label">2</text>
        <rect x="14.22" y="270.18" width="293.46" height="21" class="measure-candidate" />
        <text x="157.95" y="283.68" class="candidate-label">1</text>
        <rect x="307.68" y="270.18" width="272.88" height="21" class="measure-candidate" />
        <text x="441.12" y="283.68" class="candidate-label">2</text>
        <rect x="14.22" y="307.68" width="293.46" height="21" class="measure-candidate" />
        <text x="157.95" y="321.18" class="candidate-label">1</text>
        <rect x="307.68" y="307.68" width="273.12" height="21" class="measure-candidate" />
        <text x="441.24" y="321.18" class="candidate-label">2</text>
        <rect x="14.22" y="348.18" width="233.16" height="21" class="measure-candidate" />
        <text x="127.8" y="361.68" class="candidate-label">1</text>
        <rect x="247.38" y="348.18" width="157.2" height="21" class="measure-candidate" />
        <text x="322.98" y="361.68" class="candidate-label">2</text>
        <rect x="404.58" y="348.18" width="176.88" height="21" class="measure-candidate" />
        <text x="490.02" y="361.68" class="candidate-label">3</text>
        <rect x="14.22" y="426.18" width="209.88" height="21" class="measure-candidate" />
        <text x="116.16" y="439.68" class="candidate-label">1</text>
        <rect x="224.1" y="426.18" width="162.3" height="21" class="measure-candidate" />
        <text x="302.25" y="439.68" class="candidate-label">2</text>
        <rect x="386.4" y="426.18" width="194.88" height="21" class="measure-candidate" />
        <text x="480.84" y="439.68" class="candidate-label">3</text>
        <rect x="14.22" y="504.18" width="193.86" height="21" class="measure-candidate" />
        <text x="108.15" y="517.6800000000001" class="candidate-label">1</text>
        <rect x="208.08" y="504.18" width="196.5" height="21" class="measure-candidate" />
        <text x="303.33000000000004" y="517.6800000000001" class="candidate-label">2</text>
        <rect x="404.58" y="504.18" width="176.88" height="21" class="measure-candidate" />
        <text x="490.02" y="517.6800000000001" class="candidate-label">3</text>
        <rect x="14.22" y="582.18" width="216.9" height="21" class="measure-candidate" />
        <text x="119.67" y="595.68" class="candidate-label">1</text>
        <rect x="231.12" y="582.18" width="159" height="21" class="measure-candidate" />
        <text x="307.62" y="595.68" class="candidate-label">2</text>
        <rect x="390.12" y="582.18" width="190.8" height="21" class="measure-candidate" />
        <text x="482.52" y="595.68" class="candidate-label">3</text>
        <rect x="14.22" y="660.18" width="193.86" height="21" class="measure-candidate" />
        <text x="108.15" y="673.68" class="candidate-label">1</text>
        <rect x="208.08" y="660.18" width="196.5" height="21" class="measure-candidate" />
        <text x="303.33000000000004" y="673.68" class="candidate-label">2</text>
        <rect x="404.58" y="660.18" width="176.88" height="21" class="measure-candidate" />
        <text x="490.02" y="673.68" class="candidate-label">3</text>
        <rect x="14.22" y="738.18" width="210.06" height="21" class="measure-candidate" />
        <text x="116.25" y="751.68" class="candidate-label">1</text>
        <rect x="224.28" y="738.18" width="132.6" height="21" class="measure-candidate" />
        <text x="287.58" y="751.68" class="candidate-label">2</text>
        <rect x="356.88" y="738.18" width="224.4" height="21" class="measure-candidate" />
        <text x="466.08" y="751.68" class="candidate-label">3</text>
</svg>
