<svg xmlns="http://www.w3.org/2000/svg" viewBox="0 0 595.22 842" role="img" aria-labelledby="title desc">
  <title id="title">segah--zeybek--agiraksak--antalya_zeybegi--antalya PDF vector measure candidates</title>
  <desc id="desc">12 measure candidates extracted from 5 staff rows. These are unverified candidates.</desc>
  <style>
    .page { fill: #fffdf8; stroke: #1f2937; stroke-width: 1.2; }
    .staff-band { fill: rgba(21, 94, 117, 0.06); stroke: rgba(21, 94, 117, 0.45); stroke-width: 0.8; }
    .staff-line { stroke: #334155; stroke-width: 0.55; }
    .measure-candidate { fill: rgba(217, 119, 6, 0.15); stroke: #b45309; stroke-width: 0.9; }
    .row-label { fill: #0f766e; font: 8px ui-monospace, SFMono-Regular, Consolas, monospace; }
    .candidate-label { fill: #92400e; font: 7px ui-monospace, SFMono-Regular, Consolas, monospace; text-anchor: middle; }
  </style>
  <rect x="0" y="0" width="595.22" height="842" class="page" />

      <rect x="10.71" y="252.41" width="567.06" height="21" class="staff-band" />
      <text x="14.71" y="247.41" class="row-label">row 1</text>
      <rect x="10.71" y="349.19" width="566.82" height="21" class="staff-band" />
      <text x="14.71" y="344.19" class="row-label">row 2</text>
      <rect x="10.71" y="445.91" width="566.64" height="21" class="staff-band" />
      <text x="14.71" y="440.91" class="row-label">row 3</text>
      <rect x="10.71" y="542.69" width="566.52" height="21" class="staff-band" />
      <text x="14.71" y="537.69" class="row-label">row 4</text>
      <rect x="10.71" y="639.41" width="566.58" height="21" class="staff-band" />
      <text x="14.71" y="634.41" class="row-label">row 5</text>

        <line x1="10.71" y1="252.41" x2="577.77" y2="252.41" class="staff-line" />
        <line x1="10.71" y1="257.69" x2="577.77" y2="257.69" class="staff-line" />
        <line x1="10.71" y1="262.91" x2="577.77" y2="262.91" class="staff-line" />
        <line x1="10.71" y1="268.19" x2="577.77" y2="268.19" class="staff-line" />
        <line x1="10.71" y1="273.41" x2="577.77" y2="273.41" class="staff-line" />
        <line x1="10.71" y1="349.19" x2="577.53" y2="349.19" class="staff-line" />
        <line x1="10.71" y1="354.41" x2="577.53" y2="354.41" class="staff-line" />
        <line x1="10.71" y1="359.69" x2="577.53" y2="359.69" class="staff-line" />
        <line x1="10.71" y1="364.91" x2="577.53" y2="364.91" class="staff-line" />
        <line x1="10.71" y1="370.19" x2="577.53" y2="370.19" class="staff-line" />
        <line x1="10.71" y1="445.91" x2="577.35" y2="445.91" class="staff-line" />
        <line x1="10.71" y1="451.19" x2="577.35" y2="451.19" class="staff-line" />
        <line x1="10.71" y1="456.41" x2="577.35" y2="456.41" class="staff-line" />
        <line x1="10.71" y1="461.69" x2="577.35" y2="461.69" class="staff-line" />
        <line x1="10.71" y1="466.91" x2="577.35" y2="466.91" class="staff-line" />
        <line x1="10.71" y1="542.69" x2="577.23" y2="542.69" class="staff-line" />
        <line x1="10.71" y1="547.91" x2="577.23" y2="547.91" class="staff-line" />
        <line x1="10.71" y1="553.19" x2="577.23" y2="553.19" class="staff-line" />
        <line x1="10.71" y1="558.41" x2="577.23" y2="558.41" class="staff-line" />
        <line x1="10.71" y1="563.69" x2="577.23" y2="563.69" class="staff-line" />
        <line x1="10.71" y1="639.41" x2="577.29" y2="639.41" class="staff-line" />
        <line x1="10.71" y1="644.69" x2="577.29" y2="644.69" class="staff-line" />
        <line x1="10.71" y1="649.91" x2="577.29" y2="649.91" class="staff-line" />
        <line x1="10.71" y1="655.19" x2="577.29" y2="655.19" class="staff-line" />
        <line x1="10.71" y1="660.41" x2="577.29" y2="660.41" class="staff-line" />

        <rect x="10.71" y="252.41" width="66.06" height="21" class="measure-candidate" />
        <text x="40.74" y="265.90999999999997" class="candidate-label">1</text>
        <rect x="80.55" y="252.41" width="29.82" height="21" class="measure-candidate" />
        <text x="92.46" y="265.90999999999997" class="candidate-label">2</text>
        <rect x="110.37" y="252.41" width="100.2" height="21" class="measure-candidate" />
        <text x="157.47" y="265.90999999999997" class="candidate-label">3</text>
        <rect x="210.57" y="252.41" width="367.2" height="21" class="measure-candidate" />
        <text x="391.16999999999996" y="265.90999999999997" class="candidate-label">4</text>
        <rect x="10.71" y="349.19" width="66.96" height="21" class="measure-candidate" />
        <text x="41.19" y="362.69" class="candidate-label">1</text>
        <rect x="77.67" y="349.19" width="150" height="21" class="measure-candidate" />
        <text x="149.67000000000002" y="362.69" class="candidate-label">2</text>
        <rect x="227.67" y="349.19" width="349.86" height="21" class="measure-candidate" />
        <text x="399.6" y="362.69" class="candidate-label">3</text>
        <rect x="10.71" y="445.91" width="566.64" height="21" class="measure-candidate" />
        <text x="291.03" y="459.41" class="candidate-label">1</text>
        <rect x="10.71" y="542.69" width="566.52" height="21" class="measure-candidate" />
        <text x="290.96999999999997" y="556.19" class="candidate-label">1</text>
        <rect x="10.71" y="639.41" width="66.96" height="21" class="measure-candidate" />
        <text x="41.19" y="652.91" class="candidate-label">1</text>
        <rect x="77.67" y="639.41" width="150" height="21" class="measure-candidate" />
        <text x="149.67000000000002" y="652.91" class="candidate-label">2</text>
        <rect x="227.67" y="639.41" width="349.62" height="21" class="measure-candidate" />
        <text x="399.48" y="652.91" class="candidate-label">3</text>
</svg>
