<svg xmlns="http://www.w3.org/2000/svg" viewBox="0 0 595.22 842" role="img" aria-labelledby="title desc">
  <title id="title">segah--sarki--devrihindi--dil_harab-i--tanburi_ali_efendi PDF vector measure candidates</title>
  <desc id="desc">27 measure candidates extracted from 8 staff rows. These are unverified candidates.</desc>
  <style>
    .page { fill: #fffdf8; stroke: #1f2937; stroke-width: 1.2; }
    .staff-band { fill: rgba(21, 94, 117, 0.06); stroke: rgba(21, 94, 117, 0.45); stroke-width: 0.8; }
    .staff-line { stroke: #334155; stroke-width: 0.55; }
    .measure-candidate { fill: rgba(217, 119, 6, 0.15); stroke: #b45309; stroke-width: 0.9; }
    .row-label { fill: #0f766e; font: 8px ui-monospace, SFMono-Regular, Consolas, monospace; }
    .candidate-label { fill: #92400e; font: 7px ui-monospace, SFMono-Regular, Consolas, monospace; text-anchor: middle; }
  </style>
  <rect x="0" y="0" width="595.22" height="842" class="page" />

      <rect x="14.22" y="115.7" width="566.801" height="20.999" class="staff-band" />
      <text x="18.22" y="110.7" class="row-label">row 1</text>
      <rect x="14.22" y="196.697" width="566.861" height="21" class="staff-band" />
      <text x="18.22" y="191.697" class="row-label">row 2</text>
      <rect x="14.22" y="277.695" width="566.561" height="20.999" class="staff-band" />
      <text x="18.22" y="272.695" class="row-label">row 3</text>
      <rect x="14.22" y="358.692" width="565.841" height="20.999" class="staff-band" />
      <text x="18.22" y="353.692" class="row-label">row 4</text>
      <rect x="14.22" y="439.689" width="566.561" height="21" class="staff-band" />
      <text x="18.22" y="434.689" class="row-label">row 5</text>
      <rect x="14.22" y="520.687" width="565.301" height="20.999" class="staff-band" />
      <text x="18.22" y="515.687" class="row-label">row 6</text>
      <rect x="14.22" y="601.684" width="567.04" height="20.999" class="staff-band" />
      <text x="18.22" y="596.684" class="row-label">row 7</text>
      <rect x="14.22" y="682.681" width="566.561" height="20.999" class="staff-band" />
      <text x="18.22" y="677.681" class="row-label">row 8</text>

        <line x1="14.22" y1="115.7" x2="581.021" y2="115.7" class="staff-line" />
        <line x1="14.22" y1="120.92" x2="581.021" y2="120.92" class="staff-line" />
        <line x1="14.22" y1="126.2" x2="581.021" y2="126.2" class="staff-line" />
        <line x1="14.22" y1="131.42" x2="581.021" y2="131.42" class="staff-line" />
        <line x1="14.22" y1="136.699" x2="581.021" y2="136.699" class="staff-line" />
        <line x1="14.22" y1="196.697" x2="581.081" y2="196.697" class="staff-line" />
        <line x1="14.22" y1="201.917" x2="581.081" y2="201.917" class="staff-line" />
        <line x1="14.22" y1="207.197" x2="581.081" y2="207.197" class="staff-line" />
        <line x1="14.22" y1="212.417" x2="581.081" y2="212.417" class="staff-line" />
        <line x1="14.22" y1="217.697" x2="581.081" y2="217.697" class="staff-line" />
        <line x1="14.22" y1="277.695" x2="580.781" y2="277.695" class="staff-line" />
        <line x1="14.22" y1="282.915" x2="580.781" y2="282.915" class="staff-line" />
        <line x1="14.22" y1="288.194" x2="580.781" y2="288.194" class="staff-line" />
        <line x1="14.22" y1="293.414" x2="580.781" y2="293.414" class="staff-line" />
        <line x1="14.22" y1="298.694" x2="580.781" y2="298.694" class="staff-line" />
        <line x1="14.22" y1="358.692" x2="580.061" y2="358.692" class="staff-line" />
        <line x1="14.22" y1="363.912" x2="580.061" y2="363.912" class="staff-line" />
        <line x1="14.22" y1="369.192" x2="580.061" y2="369.192" class="staff-line" />
        <line x1="14.22" y1="374.411" x2="580.061" y2="374.411" class="staff-line" />
        <line x1="14.22" y1="379.691" x2="580.061" y2="379.691" class="staff-line" />
        <line x1="14.22" y1="439.689" x2="580.781" y2="439.689" class="staff-line" />
        <line x1="14.22" y1="444.909" x2="580.781" y2="444.909" class="staff-line" />
        <line x1="14.22" y1="450.189" x2="580.781" y2="450.189" class="staff-line" />
        <line x1="14.22" y1="455.409" x2="580.781" y2="455.409" class="staff-line" />
        <line x1="14.22" y1="460.689" x2="580.781" y2="460.689" class="staff-line" />
        <line x1="14.22" y1="520.687" x2="579.521" y2="520.687" class="staff-line" />
        <line x1="14.22" y1="525.906" x2="579.521" y2="525.906" class="staff-line" />
        <line x1="14.22" y1="531.186" x2="579.521" y2="531.186" class="staff-line" />
        <line x1="14.22" y1="536.406" x2="579.521" y2="536.406" class="staff-line" />
        <line x1="14.22" y1="541.686" x2="579.521" y2="541.686" class="staff-line" />
        <line x1="14.22" y1="601.684" x2="581.26" y2="601.684" class="staff-line" />
        <line x1="14.22" y1="606.904" x2="581.26" y2="606.904" class="staff-line" />
        <line x1="14.22" y1="612.184" x2="581.26" y2="612.184" class="staff-line" />
        <line x1="14.22" y1="617.403" x2="581.26" y2="617.403" class="staff-line" />
        <line x1="14.22" y1="622.683" x2="581.26" y2="622.683" class="staff-line" />
        <line x1="14.22" y1="682.681" x2="580.781" y2="682.681" class="staff-line" />
        <line x1="14.22" y1="687.901" x2="580.781" y2="687.901" class="staff-line" />
        <line x1="14.22" y1="693.181" x2="580.781" y2="693.181" class="staff-line" />
        <line x1="14.22" y1="698.401" x2="580.781" y2="698.401" class="staff-line" />
        <line x1="14.22" y1="703.68" x2="580.781" y2="703.68" class="staff-line" />

        <rect x="14.22" y="115.7" width="68.097" height="20.999" class="measure-candidate" />
        <text x="45.268499999999996" y="129.1995" class="candidate-label">1</text>
        <rect x="86.037" y="115.7" width="250.012" height="20.999" class="measure-candidate" />
        <text x="208.043" y="129.1995" class="candidate-label">2</text>
        <rect x="336.049" y="115.7" width="244.972" height="20.999" class="measure-candidate" />
        <text x="455.53499999999997" y="129.1995" class="candidate-label">3</text>
        <rect x="14.22" y="196.697" width="293.87" height="21" class="measure-candidate" />
        <text x="158.155" y="210.197" class="candidate-label">1</text>
        <rect x="308.09" y="196.697" width="272.991" height="21" class="measure-candidate" />
        <text x="441.58549999999997" y="210.197" class="candidate-label">2</text>
        <rect x="14.22" y="277.695" width="43.618" height="20.999" class="measure-candidate" />
        <text x="33.029" y="291.1945" class="candidate-label">1</text>
        <rect x="61.618" y="277.695" width="170.634" height="20.999" class="measure-candidate" />
        <text x="143.935" y="291.1945" class="candidate-label">2</text>
        <rect x="232.252" y="277.695" width="185.274" height="20.999" class="measure-candidate" />
        <text x="321.889" y="291.1945" class="candidate-label">3</text>
        <rect x="417.526" y="277.695" width="163.255" height="20.999" class="measure-candidate" />
        <text x="496.1535" y="291.1945" class="candidate-label">4</text>
        <rect x="14.22" y="358.692" width="142.615" height="20.999" class="measure-candidate" />
        <text x="82.5275" y="372.1915" class="candidate-label">1</text>
        <rect x="156.835" y="358.692" width="212.333" height="20.999" class="measure-candidate" />
        <text x="260.0015" y="372.1915" class="candidate-label">2</text>
        <rect x="372.888" y="358.692" width="207.173" height="20.999" class="measure-candidate" />
        <text x="473.4745" y="372.1915" class="candidate-label">3</text>
        <rect x="14.22" y="439.689" width="43.618" height="21" class="measure-candidate" />
        <text x="33.029" y="453.189" class="candidate-label">1</text>
        <rect x="61.618" y="439.689" width="217.313" height="21" class="measure-candidate" />
        <text x="167.2745" y="453.189" class="candidate-label">2</text>
        <rect x="278.931" y="439.689" width="160.794" height="21" class="measure-candidate" />
        <text x="356.328" y="453.189" class="candidate-label">3</text>
        <rect x="439.725" y="439.689" width="141.056" height="21" class="measure-candidate" />
        <text x="507.25300000000004" y="453.189" class="candidate-label">4</text>
        <rect x="14.22" y="520.687" width="143.155" height="20.999" class="measure-candidate" />
        <text x="82.7975" y="534.1865" class="candidate-label">1</text>
        <rect x="157.375" y="520.687" width="211.793" height="20.999" class="measure-candidate" />
        <text x="260.2715" y="534.1865" class="candidate-label">2</text>
        <rect x="372.888" y="520.687" width="206.633" height="20.999" class="measure-candidate" />
        <text x="473.2045" y="534.1865" class="candidate-label">3</text>
        <rect x="14.22" y="601.684" width="43.618" height="20.999" class="measure-candidate" />
        <text x="33.029" y="615.1835" class="candidate-label">1</text>
        <rect x="61.618" y="601.684" width="50.518" height="20.999" class="measure-candidate" />
        <text x="83.87700000000001" y="615.1835" class="candidate-label">2</text>
        <rect x="112.136" y="601.684" width="90.117" height="20.999" class="measure-candidate" />
        <text x="154.1945" y="615.1835" class="candidate-label">3</text>
        <rect x="202.253" y="601.684" width="180.474" height="20.999" class="measure-candidate" />
        <text x="289.49" y="615.1835" class="candidate-label">4</text>
        <rect x="382.727" y="601.684" width="144.535" height="20.999" class="measure-candidate" />
        <text x="451.99449999999996" y="615.1835" class="candidate-label">5</text>
        <rect x="527.262" y="601.684" width="53.998" height="20.999" class="measure-candidate" />
        <text x="551.261" y="615.1835" class="candidate-label">6</text>
        <rect x="14.22" y="682.681" width="323.089" height="20.999" class="measure-candidate" />
        <text x="172.7645" y="696.1805" class="candidate-label">1</text>
        <rect x="341.029" y="682.681" width="239.752" height="20.999" class="measure-candidate" />
        <text x="457.905" y="696.1805" class="candidate-label">2</text>
</svg>
