<svg xmlns="http://www.w3.org/2000/svg" viewBox="0 0 595.22 842" role="img" aria-labelledby="title desc">
  <title id="title">suzinak--sarki--aksak--bir_sihr-i_tarab--rahmi_bey PDF vector measure candidates</title>
  <desc id="desc">9 measure candidates extracted from 4 staff rows. These are unverified candidates.</desc>
  <style>
    .page { fill: #fffdf8; stroke: #1f2937; stroke-width: 1.2; }
    .staff-band { fill: rgba(21, 94, 117, 0.06); stroke: rgba(21, 94, 117, 0.45); stroke-width: 0.8; }
    .staff-line { stroke: #334155; stroke-width: 0.55; }
    .measure-candidate { fill: rgba(217, 119, 6, 0.15); stroke: #b45309; stroke-width: 0.9; }
    .row-label { fill: #0f766e; font: 8px ui-monospace, SFMono-Regular, Consolas, monospace; }
    .candidate-label { fill: #92400e; font: 7px ui-monospace, SFMono-Regular, Consolas, monospace; text-anchor: middle; }
  </style>
  <rect x="0" y="0" width="595.22" height="842" class="page" />

      <rect x="14.22" y="116.4" width="567" height="21" class="staff-band" />
      <text x="18.22" y="111.4" class="row-label">row 1</text>
      <rect x="14.22" y="198.9" width="566.28" height="21" class="staff-band" />
      <text x="18.22" y="193.9" class="row-label">row 2</text>
      <rect x="14.22" y="446.4" width="566.76" height="21" class="staff-band" />
      <text x="18.22" y="441.4" class="row-label">row 3</text>
      <rect x="14.22" y="528.9" width="566.16" height="21" class="staff-band" />
      <text x="18.22" y="523.9" class="row-label">row 4</text>

        <line x1="14.22" y1="116.4" x2="581.22" y2="116.4" class="staff-line" />
        <line x1="14.22" y1="121.68" x2="581.22" y2="121.68" class="staff-line" />
        <line x1="14.22" y1="126.9" x2="581.22" y2="126.9" class="staff-line" />
        <line x1="14.22" y1="132.18" x2="581.22" y2="132.18" class="staff-line" />
        <line x1="14.22" y1="137.4" x2="581.22" y2="137.4" class="staff-line" />
        <line x1="14.22" y1="198.9" x2="580.5" y2="198.9" class="staff-line" />
        <line x1="14.22" y1="204.18" x2="580.5" y2="204.18" class="staff-line" />
        <line x1="14.22" y1="209.4" x2="580.5" y2="209.4" class="staff-line" />
        <line x1="14.22" y1="214.68" x2="580.5" y2="214.68" class="staff-line" />
        <line x1="14.22" y1="219.9" x2="580.5" y2="219.9" class="staff-line" />
        <line x1="14.22" y1="446.4" x2="580.98" y2="446.4" class="staff-line" />
        <line x1="14.22" y1="451.68" x2="580.98" y2="451.68" class="staff-line" />
        <line x1="14.22" y1="456.9" x2="580.98" y2="456.9" class="staff-line" />
        <line x1="14.22" y1="462.18" x2="580.98" y2="462.18" class="staff-line" />
        <line x1="14.22" y1="467.4" x2="580.98" y2="467.4" class="staff-line" />
        <line x1="14.22" y1="528.9" x2="580.38" y2="528.9" class="staff-line" />
        <line x1="14.22" y1="534.18" x2="580.38" y2="534.18" class="staff-line" />
        <line x1="14.22" y1="539.4" x2="580.38" y2="539.4" class="staff-line" />
        <line x1="14.22" y1="544.68" x2="580.38" y2="544.68" class="staff-line" />
        <line x1="14.22" y1="549.9" x2="580.38" y2="549.9" class="staff-line" />

        <rect x="14.22" y="116.4" width="75.72" height="21" class="measure-candidate" />
        <text x="49.08" y="129.9" class="candidate-label">1</text>
        <rect x="93.72" y="116.4" width="487.5" height="21" class="measure-candidate" />
        <text x="334.47" y="129.9" class="candidate-label">2</text>
        <rect x="14.22" y="198.9" width="229.26" height="21" class="measure-candidate" />
        <text x="125.85" y="212.4" class="candidate-label">1</text>
        <rect x="243.48" y="198.9" width="337.02" height="21" class="measure-candidate" />
        <text x="408.99" y="212.4" class="candidate-label">2</text>
        <rect x="14.22" y="446.4" width="335.04" height="21" class="measure-candidate" />
        <text x="178.74" y="459.9" class="candidate-label">1</text>
        <rect x="349.26" y="446.4" width="231.72" height="21" class="measure-candidate" />
        <text x="462.12" y="459.9" class="candidate-label">2</text>
        <rect x="14.22" y="528.9" width="51.78" height="21" class="measure-candidate" />
        <text x="37.11" y="542.4" class="candidate-label">1</text>
        <rect x="69.78" y="528.9" width="262.92" height="21" class="measure-candidate" />
        <text x="198.24" y="542.4" class="candidate-label">2</text>
        <rect x="332.7" y="528.9" width="247.68" height="21" class="measure-candidate" />
        <text x="453.53999999999996" y="542.4" class="candidate-label">3</text>
</svg>
