<svg xmlns="http://www.w3.org/2000/svg" viewBox="0 0 595.22 842" role="img" aria-labelledby="title desc">
  <title id="title">ussak--ornek_oz--semai--1--ruhi_ayangil PDF vector measure candidates</title>
  <desc id="desc">8 measure candidates extracted from 1 staff rows. These are unverified candidates.</desc>
  <style>
    .page { fill: #fffdf8; stroke: #1f2937; stroke-width: 1.2; }
    .staff-band { fill: rgba(21, 94, 117, 0.06); stroke: rgba(21, 94, 117, 0.45); stroke-width: 0.8; }
    .staff-line { stroke: #334155; stroke-width: 0.55; }
    .measure-candidate { fill: rgba(217, 119, 6, 0.15); stroke: #b45309; stroke-width: 0.9; }
    .row-label { fill: #0f766e; font: 8px ui-monospace, SFMono-Regular, Consolas, monospace; }
    .candidate-label { fill: #92400e; font: 7px ui-monospace, SFMono-Regular, Consolas, monospace; text-anchor: middle; }
  </style>
  <rect x="0" y="0" width="595.22" height="842" class="page" />

      <rect x="14.22" y="111.18" width="566.58" height="21" class="staff-band" />
      <text x="18.22" y="106.18" class="row-label">row 1</text>

        <line x1="14.22" y1="111.18" x2="580.8" y2="111.18" class="staff-line" />
        <line x1="14.22" y1="116.4" x2="580.8" y2="116.4" class="staff-line" />
        <line x1="14.22" y1="121.68" x2="580.8" y2="121.68" class="staff-line" />
        <line x1="14.22" y1="126.9" x2="580.8" y2="126.9" class="staff-line" />
        <line x1="14.22" y1="132.18" x2="580.8" y2="132.18" class="staff-line" />

        <rect x="14.22" y="111.18" width="114.06" height="21" class="measure-candidate" />
        <text x="68.25" y="124.68" class="candidate-label">1</text>
        <rect x="128.28" y="111.18" width="72.36" height="21" class="measure-candidate" />
        <text x="161.46" y="124.68" class="candidate-label">2</text>
        <rect x="200.64" y="111.18" width="72.42" height="21" class="measure-candidate" />
        <text x="233.85" y="124.68" class="candidate-label">3</text>
        <rect x="273.06" y="111.18" width="36.18" height="21" class="measure-candidate" />
        <text x="288.15" y="124.68" class="candidate-label">4</text>
        <rect x="309.24" y="111.18" width="72.42" height="21" class="measure-candidate" />
        <text x="342.45" y="124.68" class="candidate-label">5</text>
        <rect x="381.66" y="111.18" width="90.48" height="21" class="measure-candidate" />
        <text x="423.90000000000003" y="124.68" class="candidate-label">6</text>
        <rect x="472.14" y="111.18" width="72.42" height="21" class="measure-candidate" />
        <text x="505.34999999999997" y="124.68" class="candidate-label">7</text>
        <rect x="544.56" y="111.18" width="36.24" height="21" class="measure-candidate" />
        <text x="559.68" y="124.68" class="candidate-label">8</text>
</svg>
